<?xml version="1.0" encoding="UTF-8" standalone="no"?>
<!-- Created with Inkscape (http://www.inkscape.org/) -->

<svg
   xmlns:dc="http://purl.org/dc/elements/1.1/"
   xmlns:cc="http://creativecommons.org/ns#"
   xmlns:rdf="http://www.w3.org/1999/02/22-rdf-syntax-ns#"
   xmlns:svg="http://www.w3.org/2000/svg"
   xmlns="http://www.w3.org/2000/svg"
   xmlns:sodipodi="http://sodipodi.sourceforge.net/DTD/sodipodi-0.dtd"
   xmlns:inkscape="http://www.inkscape.org/namespaces/inkscape"
   width="318.79056"
   height="442.74231"
   id="svg2"
   version="1.1"
   inkscape:version="0.48.5 r10040"
   sodipodi:docname="nobugs-to-go-on-the-mug.eps">
  <defs
     id="defs4" />
  <sodipodi:namedview
     id="base"
     pagecolor="#ffffff"
     bordercolor="#666666"
     borderopacity="1.0"
     inkscape:pageopacity="0.0"
     inkscape:pageshadow="2"
     inkscape:zoom="0.78"
     inkscape:cx="-5.5352466"
     inkscape:cy="179.30382"
     inkscape:document-units="px"
     inkscape:current-layer="layer1"
     showgrid="false"
     fit-margin-top="20"
     fit-margin-left="20"
     fit-margin-right="20"
     fit-margin-bottom="20"
     inkscape:window-width="1611"
     inkscape:window-height="1042"
     inkscape:window-x="2092"
     inkscape:window-y="133"
     inkscape:window-maximized="0" />
  <metadata
     id="metadata7">
    <rdf:RDF>
      <cc:Work
         rdf:about="">
        <dc:format>image/svg+xml</dc:format>
        <dc:type
           rdf:resource="http://purl.org/dc/dcmitype/StillImage" />
        <dc:title></dc:title>
      </cc:Work>
    </rdf:RDF>
  </metadata>
  <g
     inkscape:label="Layer 1"
     inkscape:groupmode="layer"
     id="layer1"
     transform="translate(-59.119966,-36.622037)">
    <path
       style="fill:#28170b"
       d="m 214.90211,382.49892 c -10.96773,-0.3913 -21.97192,-2.1132 -32.41301,-5.0719 -15.96992,-4.5255 -29.70508,-11.15229 -44.35322,-21.39905 -9.917,-6.93719 -19.48615,-15.78654 -27.41043,-25.34861 -18.708116,-22.5747 -29.664823,-50.3985 -31.468374,-79.91178 -0.268607,-4.39547 -0.119611,-16.83694 0.247781,-20.69015 1.320451,-13.84892 4.27873,-26.38699 9.16085,-38.82642 9.778656,-24.91558 27.085323,-46.87875 49.322303,-62.59287 1.66214,-1.17457 1.65765,-1.16181 0.66116,-1.8777 -0.46935,-0.33721 -0.88545,-0.6131 -0.92468,-0.6131 -0.0392,0 -1.08873,-0.55704 -2.33228,-1.23787 -2.77462,-1.51909 -3.28746,-1.72701 -5.09548,-2.0658 -5.11086,-0.95769 -10.05102,-1.12732 -17.72954,-0.60881 -3.83256,0.25881 -5.64363,0.31982 -6.0623,0.20422 -0.5679,-0.15681 -6.26241,-3.56266 -7.710157,-4.61142 -1.96325,-1.42217 -1.30125,-2.41948 1.793667,-2.70218 3.95013,-0.36083 9.32925,-1.39174 17.27441,-3.31067 2.26941,-0.54811 3.40104,-0.91549 4.40619,-1.43048 0.92495,-0.4739 1.5685,-0.69259 2.03579,-0.69182 0.70201,0.001 3.43418,0.44526 5.68793,0.92456 1.73588,0.36917 1.86614,0.41813 1.86614,0.70161 0,0.37211 0.83298,0.62054 1.7345,0.5173 0.93613,-0.10721 2.40459,0.28206 5.77436,1.53071 1.41922,0.52588 2.2402,0.91972 2.28692,1.09709 0.0504,0.19141 0.32129,0.30056 0.87877,0.35413 0.96122,0.0924 6.37278,2.70628 6.64122,3.20788 0.0935,0.17473 0.34121,0.31769 0.55044,0.31769 0.20922,0 0.53099,0.10266 0.71504,0.22812 0.18404,0.12547 0.68666,0.43188 1.11691,0.68092 l 0.78229,0.4528 2.6107,-1.29336 c 16.46873,-8.15869 32.45497,-12.6822 50.96069,-14.41999 3.89732,-0.36597 15.44729,-0.51173 19.87713,-0.25083 10.14955,0.59776 20.21241,2.2678 29.64742,4.92031 1.01923,0.28654 2.09529,0.52099 2.3912,0.52099 0.57343,0 1.0996,-0.43119 1.0996,-0.9011 0,-0.44525 2.89311,-5.20439 3.34297,-5.49916 0.23341,-0.15293 0.36708,-0.36863 0.31404,-0.50681 -0.1283,-0.33437 2.98727,-5.012677 3.70059,-5.556767 0.36624,-0.27934 0.55438,-0.55004 0.50949,-0.73308 -0.10484,-0.42757 3.48729,-5.15409 4.2665,-5.61384 0.43282,-0.25536 0.59188,-0.44954 0.52054,-0.63544 -0.10903,-0.28415 0.24304,-0.7503 2.83839,-3.75808 0.89941,-1.04234 1.77461,-1.88143 2.17596,-2.08619 0.50603,-0.25815 0.64752,-0.41785 0.57437,-0.64833 -0.0722,-0.2276 0.56539,-0.99184 2.49341,-2.98856 2.07212,-2.14592 2.77238,-2.76328 3.4994,-3.08512 0.74411,-0.32941 0.89286,-0.4637 0.82042,-0.74066 -0.0691,-0.26427 0.3075,-0.6964 1.72066,-1.97431 2.99779,-2.71091 4.71144,-4.07424 5.39866,-4.29502 0.7932,-0.25484 1.26265,-0.64115 1.20422,-0.99096 -0.0262,-0.15698 0.59821,-0.75447 1.5681,-1.50044 1.99036,-1.53086 5.16142,-3.80643 5.94627,-4.26705 0.61919,-0.3634 2.49295,-0.70543 2.31853,-0.42322 -0.0546,0.0883 -0.0306,0.27146 0.0534,0.40697 0.37033,0.5975 3.38949,-0.006 8.13773,-1.62645 2.03479,-0.69445 2.5363,-0.7984 4.49571,-0.93187 1.21299,-0.0826 2.5108,-0.22789 2.88403,-0.3228 1.4069,-0.35778 3.30168,-0.12079 2.62956,0.32889 -0.13995,0.0936 -0.86521,0.36516 -1.61166,0.60338 -1.68998,0.53932 -2.12062,0.8122 -2.12062,1.34374 0,0.31272 0.19352,0.52646 0.79666,0.87993 1.48299,0.86909 4.10749,1.13871 6.3286,0.65015 1.28572,-0.28281 2.69052,-0.32063 3.05369,-0.0822 0.3586,0.2354 0.0694,0.40421 -1.61166,0.94068 -1.68455,0.53759 -2.12062,0.81282 -2.12062,1.33844 0,0.31427 0.20492,0.525 0.89378,0.91912 1.50557,0.86141 3.80996,1.08111 6.34903,0.60533 1.75445,-0.32876 2.34236,-0.28343 2.34236,0.18058 0,0.272 -0.25849,0.42581 -1.30324,0.77548 -1.50917,0.50511 -1.83526,0.73016 -1.83526,1.26658 0,0.51191 1.22281,1.20366 2.71438,1.53556 0.6065,0.13496 1.27449,0.28367 1.48443,0.33048 0.3043,0.0679 0.38171,0.20208 0.38171,0.66178 0,1.22952 0.0161,1.21955 -4.45536,2.75079 -13.71128,4.69534 -25.6825,10.68979 -35.97401,18.01355 -7.42174,5.28155 -14.92418,12.195867 -20.36756,18.770937 -1.24589,1.50491 -1.46465,1.85356 -1.27237,2.02789 0.12771,0.1158 1.07196,0.57915 2.09834,1.02967 12.28127,5.39076 24.08644,12.91659 34.63215,22.07807 11.03914,9.59013 19.93438,20.17388 28.44212,33.84105 10.47402,16.82588 17.36623,36.26338 19.7838,55.79456 0.82897,6.69719 0.93996,8.71438 0.94278,17.13457 0.003,8.41888 -0.13275,10.91681 -0.93908,17.3042 -1.91261,15.15081 -6.38176,30.1046 -13.05578,43.68466 -15.08708,30.69869 -41.45613,55.09277 -73.02854,67.55892 -17.94781,7.0865 -36.976,10.3861 -55.98499,9.708 z m 8.39763,-30.44935 c 8.11623,-0.31494 17.66239,-1.95467 26.13033,-4.48838 3.07838,-0.92109 5.8867,-1.92302 6.16216,-2.19848 0.29714,-0.29714 -0.0958,-1.0641 -0.73869,-1.44176 -0.50103,-0.29433 -0.84242,-0.34261 -2.2045,-0.31173 -1.80778,0.0409 -3.17294,0.26472 -6.87079,1.1262 -3.86606,0.90068 -8.93439,2.07328 -11.11202,2.57086 -1.93399,0.44192 -3.82608,0.87828 -8.73693,2.01492 -1.3996,0.32395 -4.41512,1.01589 -6.70114,1.53766 -5.47789,1.25032 -5.26195,1.17206 -3.56264,1.29094 1.43833,0.10062 2.97917,0.0804 7.63422,-0.10023 z m -11.56689,-0.66506 c 0.90333,-0.22887 9.73468,-2.2847 19.62522,-4.56847 18.54648,-4.28245 20.25636,-4.74437 21.16373,-5.71731 0.51187,-0.54887 0.56079,-0.78221 0.24908,-1.1882 -0.59214,-0.77123 -1.78203,-1.02304 -3.93885,-0.83355 -1.60478,0.14099 -3.14172,0.45354 -9.58527,1.94918 -3.70485,0.85995 -6.63491,1.53678 -9.58518,2.21412 -1.39961,0.32133 -3.88072,0.89351 -5.5136,1.27152 -1.63287,0.378 -3.77045,0.87084 -4.75017,1.09522 -0.97972,0.22438 -2.92645,0.6732 -4.32606,0.99739 -1.3996,0.32417 -4.56779,1.05279 -7.04043,1.61914 -7.34371,1.6821 -8.84893,2.10045 -8.5525,2.37704 0.0852,0.0795 1.33817,0.30845 2.78443,0.50882 5.92241,0.82054 7.17354,0.85689 9.4696,0.2751 z m -18.24023,-5.73568 c 1.18444,-6.30573 1.77252,-11.06036 2.1497,-17.38042 0.57623,-9.65533 -0.37311,-20.63964 -2.54013,-29.39045 -0.38018,-1.53526 -0.71565,-2.81579 -0.74546,-2.84562 -0.0299,-0.0299 -0.17386,-0.008 -0.3201,0.0478 -0.32834,0.126 -35.306,36.98764 -35.37091,37.27608 -0.0999,0.44393 6.91782,4.62333 12.19809,7.2646 7.01347,3.50824 13.57983,6.01594 20.59093,7.86371 2.30875,0.60848 2.94169,0.73604 3.22333,0.64965 0.0933,-0.0286 0.45986,-1.59704 0.81455,-3.48537 z m 30.33026,-2.31254 c 15.23915,-3.51956 23.25042,-5.4437 24.09018,-5.78601 1.27895,-0.52129 2.02159,-1.13627 2.02159,-1.67409 0,-0.43929 -0.57531,-0.98003 -1.29559,-1.21775 -0.85483,-0.2821 -4.14022,-0.10214 -5.9145,0.324 -0.74646,0.17927 -2.54049,0.59764 -3.98675,0.9297 -1.44626,0.33205 -5.95045,1.37493 -10.0093,2.31749 -4.05885,0.94257 -8.67756,2.0111 -10.26377,2.37452 -1.58622,0.36343 -4.06734,0.93586 -5.5136,1.2721 -1.44626,0.33625 -3.43115,0.79426 -4.41088,1.01785 -7.32879,1.67245 -8.40621,1.9853 -9.94722,2.88839 -1.46541,0.85878 -2.02517,2.11773 -1.2072,2.71507 0.31254,0.22824 0.67372,0.26365 1.99337,0.19533 1.3251,-0.0686 5.67141,-1.02105 24.44367,-5.3566 z m 38.61767,-0.63831 c 17.24302,-7.71461 32.32307,-19.82212 43.60049,-35.00607 3.67307,-4.94543 6.91533,-10.23557 9.89041,-16.13747 6.33714,-12.57144 9.76044,-24.45199 11.31049,-39.25298 0.43038,-4.10976 0.43116,-15.67902 0.002,-19.93377 -1.66253,-16.45621 -6.17557,-30.69066 -14.12877,-44.56296 -2.51308,-4.38344 -7.22218,-11.43229 -7.61976,-11.4057 -0.0933,0.006 -6.23884,6.42098 -13.65675,14.25497 -7.41791,7.834 -15.10937,15.95706 -17.09215,18.05124 -1.98277,2.09418 -3.60504,3.88527 -3.60504,3.9802 0,0.0949 0.24811,0.17305 0.55136,0.17361 0.9502,0.002 3.87334,0.49178 5.62671,0.94332 6.42741,1.6552 11.45968,5.22866 14.00217,9.94307 0.87516,1.62278 1.94557,4.88183 2.29779,6.9961 0.32596,1.95667 0.37579,6.61248 0.0918,8.58177 -0.86048,5.96762 -3.64265,12.00973 -7.6345,16.57999 -3.31078,3.7905 -9.63264,8.45029 -15.0202,11.07127 -2.98351,1.45143 -5.29246,2.2612 -8.02554,2.81458 -2.80144,0.56722 -5.09675,0.68416 -8.07763,0.41154 l -2.41796,-0.22116 -0.91837,0.42172 c -1.23828,0.56859 -2.81379,1.59476 -6.94094,4.5208 -4.13704,2.93304 -4.42493,3.16027 -4.73487,3.73693 -0.38892,0.72363 -0.74279,8.69371 -0.76178,17.15748 -0.0187,8.30902 0.10838,10.05577 1.08667,14.94202 1.38199,6.9027 2.99512,9.87604 11.59002,21.3629 4.20494,5.61979 5.5562,7.64746 6.70385,10.05965 0.9423,1.98057 0.68608,1.94643 3.88113,0.51695 z m -39.56493,-4.35715 c 13.02955,-3.01422 21.30138,-5.00627 22.02381,-5.30386 1.1765,-0.48464 1.98154,-1.10965 1.98154,-1.53846 0,-0.56778 -0.57013,-1.08194 -1.49924,-1.35204 -1.34304,-0.39043 -3.25574,-0.21774 -6.9366,0.62625 -1.65851,0.38026 -4.50415,1.03396 -6.32363,1.45263 -1.81949,0.41868 -4.10976,0.94431 -5.08948,1.16805 -0.97972,0.22377 -2.92645,0.67208 -4.32606,0.99627 -1.3996,0.32417 -4.5678,1.05546 -7.04044,1.62507 -2.47263,0.56961 -5.52631,1.27315 -6.78596,1.56341 -7.24751,1.6701 -8.8644,2.19432 -10.14248,3.2883 -0.41906,0.3587 -0.73549,0.80141 -0.80765,1.12993 -0.101,0.45987 -0.0472,0.60165 0.36212,0.9537 0.96118,0.82677 1.6191,0.70342 24.58407,-4.60925 z m -0.85517,-5.02255 c 13.26075,-3.07965 19.42684,-4.58223 20.0186,-4.87821 1.08657,-0.54345 1.62004,-1.03292 1.61319,-1.48015 -0.0232,-1.51313 -2.90534,-1.89788 -7.15705,-0.95543 -2.57822,0.57148 -11.41874,2.60566 -12.94098,2.97768 -0.55984,0.13681 -1.85766,0.43708 -2.88403,0.66727 -1.02638,0.2302 -3.01128,0.68421 -4.41088,1.00894 -1.3996,0.3247 -4.5678,1.05401 -7.04044,1.62065 -5.93932,1.36108 -6.46113,1.50148 -8.09365,2.17764 -1.61324,0.66816 -2.59424,1.57789 -2.59424,2.40575 0,0.87222 0.49191,1.06135 2.54474,0.97837 1.59153,-0.0643 3.82297,-0.54615 20.94474,-4.52251 z m -1.76752,-4.83871 c 9.46688,-2.18858 17.44224,-4.04794 17.72302,-4.1319 1.03698,-0.31012 2.28288,-1.05762 2.52131,-1.5127 0.43681,-0.83366 -0.20782,-1.6177 -1.58581,-1.92879 -0.848,-0.19145 -3.53499,0.099 -5.7036,0.61642 -1.01738,0.24277 -2.65137,0.62342 -3.6311,0.84592 -0.97972,0.22249 -2.92644,0.67022 -4.32605,0.99494 -1.3996,0.32473 -4.41512,1.01986 -6.70114,1.54474 -2.28602,0.52487 -5.30153,1.22001 -6.70114,1.54474 -5.92683,1.37514 -6.81529,1.57847 -7.37974,1.68891 -0.32657,0.0639 -1.34902,0.39376 -2.2721,0.73304 -2.9478,1.08343 -4.15571,2.66506 -2.67848,3.50717 1.03026,0.58731 2.55627,0.30009 20.73483,-3.90249 z m -1.27924,-4.9384 c 8.67755,-1.99707 16.04456,-3.70916 16.37114,-3.80462 1.11728,-0.32659 2.75888,-1.26533 3.02815,-1.73164 0.36766,-0.63664 0.10793,-1.31713 -0.65489,-1.7158 -1.09179,-0.57058 -3.05718,-0.3138 -10.19143,1.33152 -3.49114,0.80514 -7.30181,1.68371 -8.46815,1.95238 -1.16634,0.26867 -3.30391,0.7629 -4.75017,1.09829 -1.44626,0.3354 -3.46933,0.80038 -4.49571,1.03332 -6.6855,1.51725 -8.73878,2.17804 -9.87904,3.17919 -1.05566,0.92689 -1.11832,1.82379 -0.15648,2.24002 1.15342,0.49915 2.77839,0.19588 19.19658,-3.58266 z m -0.46962,-5.09567 c 8.82238,-2.03329 15.50285,-3.65728 16.26995,-3.95515 1.91837,-0.74489 2.71238,-1.64204 2.33156,-2.63444 -0.29616,-0.77179 -2.69791,-1.02417 -4.98408,-0.52376 -1.49361,0.32693 -10.35076,2.36867 -16.96492,3.91075 -0.97972,0.22844 -3.11731,0.72305 -4.75018,1.09916 -8.17636,1.88334 -9.6875,2.38573 -10.76562,3.57907 -0.67584,0.74807 -0.71654,0.93242 -0.32824,1.48678 0.83965,1.19877 1.73777,1.06015 19.19153,-2.96241 z m -0.2938,-5.15434 c 15.60289,-3.60567 16.66525,-3.90709 17.69841,-5.0213 0.56218,-0.6063 0.60386,-1.40765 0.0971,-1.86644 -0.27585,-0.24975 -0.67105,-0.33562 -1.7389,-0.37793 -1.43343,-0.0568 -2.20345,0.0797 -7.82858,1.38742 -1.39961,0.32539 -5.56025,1.28542 -9.24588,2.13341 -3.68563,0.84799 -7.50273,1.72973 -8.48246,1.95942 -0.97972,0.22968 -2.62108,0.61299 -3.64745,0.8518 -2.8152,0.65502 -4.86445,1.4999 -5.59241,2.30567 -0.63371,0.70143 -0.73553,1.10651 -0.38772,1.54245 0.45324,0.56812 0.87009,0.66302 2.58715,0.589 1.44957,-0.0625 3.85705,-0.57241 16.54079,-3.5035 z m -0.60769,-5.08976 c 8.03205,-1.85514 14.91653,-3.48462 15.29883,-3.62106 1.88241,-0.67185 3.18977,-1.77816 3.08924,-2.6142 -0.0758,-0.63057 -0.81959,-1.10367 -1.86874,-1.1887 -0.9678,-0.0784 -2.42648,0.19888 -8.70156,1.65427 -2.05275,0.47611 -4.53387,1.04886 -5.51359,1.2728 -0.97973,0.22391 -2.92645,0.67282 -4.32606,0.99755 -1.3996,0.32471 -4.5678,1.05339 -7.04044,1.61928 -5.70191,1.30495 -5.76031,1.32021 -7.36028,1.9251 -1.70158,0.64327 -2.64901,1.45406 -2.64901,2.26691 0,0.46587 0.10584,0.64342 0.55136,0.925 1.11783,0.70651 2.46908,0.47034 18.52025,-3.23695 z m -68.24322,-16.88786 c 9.73594,-10.26774 18.02928,-19.0423 18.42965,-19.49902 0.52087,-0.59416 0.66566,-0.86344 0.50895,-0.94659 -0.12046,-0.0639 -1.17328,-0.16027 -2.33962,-0.21413 -5.51325,-0.25454 -11.53708,-2.68329 -17.03184,-6.86706 -2.37794,-1.81059 -5.65894,-5.14676 -7.58683,-7.7144 -3.55756,-4.73809 -5.12168,-9.11199 -5.3525,-14.96772 -0.21571,-5.47224 0.84185,-10.49197 3.25251,-15.43807 1.96132,-4.02416 4.11955,-6.70946 6.87248,-8.55087 2.8134,-1.88184 5.38028,-2.61327 9.15828,-2.60961 2.80184,0.003 5.29171,0.43314 8.56728,1.48102 1.02638,0.32834 2.06736,0.5984 2.3133,0.60011 0.24593,0.002 2.15449,-0.52582 4.24122,-1.17232 4.59171,-1.42254 7.58444,-2.2848 11.50451,-3.31461 1.62814,-0.42771 3.09772,-0.90208 3.26574,-1.05413 0.16803,-0.15206 0.30549,-0.50404 0.30549,-0.78217 0,-0.97032 -1.87731,-9.70342 -3.25334,-15.13426 -0.47283,-1.86614 -0.973,-3.88921 -1.11148,-4.4957 -0.13848,-0.6065 -0.30802,-1.21723 -0.37674,-1.35719 -0.0687,-0.13996 -0.4162,-1.24692 -0.77216,-2.45991 -0.35598,-1.213 -0.9787,-3.18822 -1.38385,-4.38938 -0.40515,-1.20117 -0.73664,-2.35902 -0.73664,-2.57302 0,-0.21399 -0.0712,-0.41452 -0.15815,-0.44562 -0.22707,-0.0812 -1.73223,-4.20613 -1.60809,-4.407 0.0571,-0.0923 -0.0119,-0.25817 -0.15331,-0.3686 -0.28013,-0.21881 -1.81272,-3.86228 -1.81272,-4.30943 0,-0.15153 -0.10887,-0.39603 -0.24191,-0.54334 -0.4057,-0.44915 -1.85906,-3.80479 -1.82689,-4.21803 0.0168,-0.21533 -0.0865,-0.43236 -0.2324,-0.48834 -0.29168,-0.11193 -2.18321,-3.70725 -2.19013,-4.16289 -0.002,-0.15874 -0.12844,-0.38777 -0.28006,-0.50894 -0.3628,-0.28994 -2.35388,-3.78944 -2.35388,-4.13716 0,-0.1485 -0.15137,-0.39676 -0.33638,-0.55168 -0.43232,-0.36198 -2.54765,-3.71162 -2.54765,-4.03419 0,-0.13468 -0.11297,-0.28823 -0.25105,-0.34121 -0.13807,-0.053 -0.41149,-0.35596 -0.60761,-0.67327 -0.23222,-0.37576 -0.48786,-0.57694 -0.73311,-0.57694 -0.2071,0 -1.63568,0.82628 -3.17464,1.83618 -6.4996,4.26519 -11.53852,8.3349 -17.0145,13.74184 -8.21028,8.10677 -14.52702,16.55334 -20.00447,26.74944 -7.30657,13.60093 -11.51516,28.27407 -12.67576,44.19359 -0.24747,3.39439 -0.24792,12.06275 -5.9e-4,15.43807 1.23806,16.91078 5.88301,32.30985 14.0981,46.73833 2.67717,4.70201 7.3316,11.41922 7.79346,11.24739 0.0747,-0.0278 8.10162,-8.45143 17.83755,-18.71917 z m 68.08748,11.72231 c 12.85163,-2.97076 15.28187,-3.57975 16.32901,-4.09183 1.75681,-0.85914 2.55567,-2.13367 1.7783,-2.83718 -0.48972,-0.44318 -1.77015,-0.64807 -2.96227,-0.474 -1.41904,0.20721 -11.51937,2.5572 -14.29679,3.32636 -3.3803,0.93612 -6.60651,1.68508 -10.51825,2.44178 -6.36461,1.23117 -8.44129,1.8887 -9.47043,2.99858 -0.66254,0.71452 -0.62367,1.49347 0.0973,1.94983 0.49035,0.31037 0.73908,0.33944 2.24785,0.26282 1.41596,-0.0719 4.19324,-0.66332 16.79526,-3.57636 z m -14.67465,-1.89071 c 0.88642,-0.22183 2.1699,-0.59455 2.85219,-0.82829 2.43948,-0.83569 10.50886,-2.68134 14.45202,-3.30551 2.59217,-0.41033 11.46087,-2.40337 12.81963,-2.88095 1.97406,-0.69381 3.24743,-2.03888 2.81945,-2.97819 -0.49823,-1.09352 -2.84279,-1.02037 -7.0718,0.22064 -1.58621,0.46549 -3.79922,1.09146 -4.91778,1.39108 -1.11856,0.2996 -3.94538,1.21711 -6.28182,2.03889 -5.50962,1.93789 -7.8969,2.44402 -13.60245,2.88387 -4.60763,0.3552 -5.59556,0.60546 -6.51236,1.64963 -0.43029,0.49007 -0.5082,0.69675 -0.4231,1.12226 0.13046,0.65229 0.2375,0.75798 1.05096,1.03763 0.87442,0.30061 2.7606,0.1631 4.81506,-0.35106 z m -3.66417,-4.71699 c 0.51368,-0.21462 1.11944,-0.83759 1.11944,-1.15124 0,-0.0686 -0.34852,-0.32898 -0.77449,-0.57862 -0.64137,-0.37587 -0.99475,-0.45729 -2.05598,-0.4737 -1.18932,-0.0184 -1.30523,0.0116 -1.61136,0.41678 -0.43982,0.58212 -0.26267,1.27405 0.43511,1.69955 0.63733,0.38863 2.06285,0.4317 2.88728,0.0872 z m 10.624,-2.99495 c 3.47689,-0.62607 6.5443,-1.68672 8.83072,-3.05352 2.10563,-1.25872 2.31684,-1.44201 2.08393,-1.80859 -0.45017,-0.70852 -3.25736,-0.0492 -7.52588,1.76766 -3.61836,1.54011 -3.88941,1.60451 -6.95561,1.65275 -1.44626,0.0228 -2.75564,0.0964 -2.90973,0.16358 -0.38451,0.16773 -0.50361,0.73277 -0.21523,1.02114 0.21623,0.21623 0.77238,0.43716 1.68294,0.66857 0.55881,0.14201 3.08912,-0.0659 5.00886,-0.41159 z m -7.23753,-2.96168 c 0.14051,-0.14053 0.30882,-0.42353 0.374,-0.62893 0.17169,-0.54093 -0.70021,-1.20454 -2.0696,-1.57522 l -1.10777,-0.29985 -0.83455,0.82199 c -0.459,0.4521 -0.83455,0.88018 -0.83455,0.95126 0,0.14893 0.90077,0.63761 1.52575,0.82772 0.79289,0.24117 2.67035,0.1794 2.94672,-0.097 z m 26.54805,-0.85682 c 3.86485,-0.63489 5.08598,-1.022 6.02054,-1.90857 0.64652,-0.61331 1.00188,-1.33118 0.86791,-1.75329 -0.14772,-0.46545 -1.15872,-0.87172 -1.83369,-0.73687 -2.7885,0.55704 -8.5373,3.15052 -9.46716,4.27094 -0.17741,0.21375 -0.15857,0.30008 0.10803,0.49502 0.41162,0.30099 0.0478,0.33202 4.30437,-0.36723 z m -19.31397,-1.40047 c 2.18198,-0.75785 5.33283,-2.6942 5.15177,-3.16602 -0.19859,-0.51752 -1.14337,-0.6347 -2.81164,-0.34872 -2.65345,0.45485 -6.6434,1.44862 -7.08037,1.76349 -0.22738,0.16385 -0.48558,0.51436 -0.57376,0.77891 -0.1368,0.4104 -0.10102,0.52711 0.24378,0.79523 0.22225,0.17284 0.63313,0.38896 0.91305,0.48026 0.74241,0.24217 3.07734,0.0719 4.15717,-0.30315 z m 12.10538,-1.9808 c 1.64563,-0.4769 4.9867,-1.87852 6.47012,-2.71432 1.35235,-0.76196 3.13066,-2.07379 3.2568,-2.40249 0.44456,-1.15853 -3.2386,-0.37801 -8.22363,1.74269 -2.39881,1.02049 -3.30028,1.47371 -4.57562,2.30041 -1.0984,0.712 -1.32124,1.14776 -0.76342,1.49286 0.42096,0.26043 2.13817,0.0728 3.83575,-0.41915 z m -14.7357,-1.73112 c 6.92323,-1.51337 10.38518,-2.5798 15.01394,-4.62492 2.24308,-0.99106 4.58053,-2.35116 4.58053,-2.66529 0,-0.31856 -0.57062,-0.56605 -1.30363,-0.56544 -1.07675,0.002 -3.38963,0.46112 -10.23251,2.03609 -3.59232,0.8268 -6.9438,1.55792 -7.44773,1.62472 -1.02747,0.13617 -0.94327,0.0698 -3.57299,2.81751 -0.95459,0.99744 -1.68797,1.8906 -1.62974,1.98483 0.15331,0.24806 1.4829,0.0722 4.59213,-0.6075 z m 9.67,-7.43297 c 8.77562,-2.03763 11.18171,-2.67184 14.25052,-3.75635 2.55759,-0.90386 3.92576,-1.55922 4.42801,-2.12106 0.562,-0.62867 0.60716,-0.95014 0.18914,-1.34637 -0.35197,-0.33362 -0.49483,-0.34905 -2.24206,-0.2425 -1.81164,0.1105 -3.01456,0.34244 -9.24588,1.78278 -1.63287,0.37743 -4.57204,1.03921 -6.53149,1.47064 -1.95945,0.43141 -3.82983,0.84896 -4.1564,0.92788 -0.46197,0.11164 -1.09271,0.67296 -2.84162,2.52889 -1.23632,1.31196 -2.24785,2.46686 -2.24785,2.56646 0,0.10708 0.15593,0.13637 0.38171,0.0716 0.20993,-0.0602 3.8171,-0.90708 8.01592,-1.882 z m 15.64629,1.4452 c 1.98994,-0.47707 6.00949,-2.30313 8.02886,-3.64749 0.94114,-0.62654 1.75511,-1.25368 1.80882,-1.39367 0.14107,-0.36762 -0.28472,-0.56869 -0.96967,-0.45789 -1.34418,0.21744 -6.44422,2.103 -8.56486,3.16658 -1.3416,0.67286 -3.14094,1.81515 -3.14094,1.99397 0,0.29857 0.552,0.67546 0.98761,0.67432 0.24993,0 1.08251,-0.15176 1.85018,-0.33582 z m -9.19963,-8.16083 c 8.41543,-1.95358 10.94109,-2.72382 11.82287,-3.6056 0.44708,-0.44708 0.48112,-0.56217 0.37759,-1.27682 -0.0626,-0.43199 -0.15242,-0.8519 -0.19966,-0.93315 -0.20454,-0.35186 -5.02354,0.23365 -8.41531,1.02245 -1.41217,0.32843 -3.67455,0.82191 -5.0275,1.09662 -2.1018,0.42678 -2.52451,0.56663 -2.90361,0.96057 -3.94887,4.10345 -4.71249,5.01892 -3.92477,4.70515 0.16328,-0.065 3.88496,-0.95119 8.27039,-1.96922 z m 23.11475,-0.64599 c 1.5616,-0.54357 2.24779,-0.93125 2.24779,-1.26996 0,-0.47218 -1.84837,-0.99346 -3.8171,-1.07651 -1.75396,-0.074 -1.90183,-0.0544 -2.45991,0.32525 -0.32658,0.22219 -0.6177,0.5696 -0.64695,0.77201 -0.0455,0.31438 0.0844,0.40799 0.89066,0.64239 0.51911,0.1509 0.94384,0.33985 0.94384,0.41987 0,0.30177 0.55017,0.67859 0.98759,0.67641 0.24994,-0.002 1.08426,-0.22152 1.85408,-0.48946 z m -78.67483,-2.79709 c 0.7931,-0.13494 2.12909,-0.3679 2.96886,-0.5177 0.83976,-0.1498 1.79404,-0.31189 2.12061,-0.36022 0.49213,-0.0728 0.96432,-0.47148 2.75857,-2.32903 1.30077,-1.34667 2.06879,-2.26184 1.92427,-2.29299 -0.72019,-0.15518 -7.17216,1.32523 -12.65635,2.90402 -4.44223,1.27883 -4.56415,1.32257 -4.98281,1.78737 -0.80797,0.89702 0.33883,1.23032 3.88009,1.12766 1.39961,-0.0406 3.19365,-0.18415 3.98676,-0.31911 z m 88.72649,-0.1109 c 4.95146,-0.44468 11.75281,-2.12124 16.11327,-3.97196 1.37791,-0.58483 3.73567,-2.02707 3.73567,-2.28509 0,-0.7243 -1.41257,-0.87751 -4.00694,-0.43463 -2.63923,0.45054 -13.49304,3.24614 -18.52875,4.77242 -2.04533,0.61993 -2.69406,1.41016 -1.42725,1.73852 1.47936,0.38345 1.73287,0.3946 4.114,0.18074 z m -14.43725,-1.25018 c 0.196,-0.17738 0.35499,-0.44428 0.35331,-0.59311 -0.004,-0.31729 -1.13333,-1.29776 -1.77759,-1.5427 -0.74684,-0.28395 -2.37319,-0.19785 -3.38033,0.17898 -1.08401,0.40558 -1.8381,0.9776 -1.48131,1.12365 0.12568,0.0514 0.4706,0.30611 0.76651,0.56592 0.68266,0.59938 0.96656,0.65302 3.27155,0.61828 1.59516,-0.024 1.94732,-0.079 2.24786,-0.35102 z m -16.81928,-0.86122 c 2.16565,-0.51182 4.39374,-1.11596 4.95131,-1.34252 0.55755,-0.22655 2.21922,-0.69329 3.69259,-1.0372 4.24015,-0.98973 4.1814,-0.96988 4.35778,-1.47142 0.35058,-0.99688 -0.7006,-2.17195 -1.94412,-2.17325 -0.33247,0 -2.24103,0.38447 -4.24123,0.85516 -2.0002,0.47069 -4.24747,0.90035 -4.99393,0.95481 l -1.35719,0.099 -2.20543,2.29234 c -2.20984,2.2969 -2.59751,2.75369 -2.33706,2.75369 0.0768,0 1.91161,-0.41876 4.07728,-0.93059 z m -64.66969,-0.94664 c 6.7595,-1.15504 11.28228,-2.11904 16.19113,-3.45104 l 2.79921,-0.75955 2.0782,-2.16864 c 1.14302,-1.19276 2.0782,-2.23384 2.0782,-2.31351 0,-0.0797 -0.20994,-0.10126 -0.46654,-0.0479 -0.77884,0.16184 -4.83242,0.60542 -5.54752,0.60707 -0.42245,0.002 -0.61055,-0.0579 -0.50895,-0.15926 0.0886,-0.0885 1.47158,-0.61801 3.07319,-1.17674 3.47508,-1.21236 4.07559,-1.50279 4.79017,-2.31664 0.7227,-0.82311 0.68212,-1.53297 -0.11411,-1.9962 -0.53939,-0.31379 -0.63713,-0.31493 -3.45355,-0.0405 -4.08855,0.39833 -4.08442,0.26596 0.0393,-1.25845 3.02938,-1.11986 3.77416,-1.61739 3.98281,-2.66066 0.0823,-0.41146 0.0217,-0.60192 -0.28089,-0.8839 -0.5869,-0.54676 -1.28108,-0.59612 -4.1921,-0.29808 -4.59485,0.47043 -4.61926,0.39771 -0.38896,-1.15846 1.6409,-0.60362 3.10826,-1.24956 3.3506,-1.47494 1.30207,-1.21096 0.51188,-2.52161 -1.52026,-2.52161 -0.40634,0 -2.20133,0.19085 -3.98888,0.42412 -1.78755,0.23326 -3.38137,0.42412 -3.54181,0.42412 -0.68249,0 0.21982,-0.40236 3.2316,-1.44103 3.91353,-1.34965 4.29645,-1.52908 4.62685,-2.168 0.48759,-0.94289 -0.24688,-1.75469 -1.74144,-1.9248 -0.7238,-0.0824 -2.62223,0.14796 -9.98834,1.21195 -1.39586,0.20163 -0.26088,-0.27214 3.90556,-1.63022 2.33068,-0.75971 4.44736,-1.5304 4.70373,-1.71261 0.66471,-0.47248 0.7737,-1.07405 0.28823,-1.59082 -0.87376,-0.93007 -2.34088,-0.96383 -7.20103,-0.16573 -8.45679,1.38875 -14.90325,2.8774 -25.36254,5.85684 -2.56594,0.73096 -5.30546,1.49957 -6.08781,1.70803 -1.17868,0.3141 -1.54938,0.50066 -2.16303,1.08864 -0.93499,0.89587 -0.98968,1.46458 -0.1892,1.96714 0.43394,0.27243 0.75006,0.33044 1.48443,0.27233 0.78329,-0.062 5.91194,-0.90886 12.44901,-2.05565 3.38823,-0.5944 2.65593,-0.15574 -1.93077,1.15657 -9.99788,2.86048 -10.67573,3.08128 -11.29135,3.67797 -0.95796,0.92849 -0.7071,1.81674 0.62249,2.20415 0.45206,0.13173 1.49815,0.0198 4.90079,-0.52451 2.37933,-0.38059 4.92613,-0.80179 5.65957,-0.93602 1.65675,-0.30321 3.07008,-0.328 2.5831,-0.0453 -0.17855,0.10364 -1.66722,0.59087 -3.30816,1.08271 -8.10399,2.42911 -8.57029,2.58748 -8.96368,3.04433 -0.66337,0.77041 -0.41367,1.58432 0.60488,1.97156 0.80228,0.30503 2.16096,0.19168 7.09921,-0.59219 2.721,-0.43195 5.12305,-0.78535 5.33788,-0.78535 0.34009,0 0.35848,0.0307 0.1422,0.23782 -0.2177,0.20839 -2.53913,0.97252 -8.09275,2.66385 -1.95419,0.59512 -2.18295,0.71819 -2.50983,1.35031 -0.25472,0.49259 -0.24731,0.52589 0.22107,0.99429 0.33249,0.33249 0.79194,0.5484 1.46364,0.68785 0.89615,0.18605 1.40843,0.13735 6.05145,-0.57518 7.73034,-1.1863 7.87506,-1.08292 1.37966,0.98567 -2.4371,0.77614 -4.61926,1.53447 -4.84925,1.68518 -0.97766,0.64057 -0.56612,1.61066 0.83272,1.96289 1.32254,0.33302 3.00378,0.20062 8.4826,-0.66798 2.96357,-0.46984 5.47276,-0.8219 5.57599,-0.78236 0.29794,0.11414 -0.81499,0.53549 -4.33562,1.6414 -1.8043,0.56678 -3.76703,1.18859 -4.3616,1.38184 -1.74401,0.56678 -2.19592,1.31071 -1.16681,1.92073 1.23716,0.73336 3.52878,0.7561 7.51733,0.0745 z m 93.47816,-0.66051 c 16.34653,-3.00997 22.0378,-4.45199 26.69375,-6.76349 2.01275,-0.99925 3.57676,-2.20422 3.57676,-2.75567 0,-0.17582 -0.18793,-0.44281 -0.41764,-0.59333 -0.3552,-0.23272 -0.72673,-0.2552 -2.48431,-0.15028 -2.18021,0.13011 -2.46697,0.009 -1.13276,-0.477 0.39961,-0.14566 1.48998,-0.54489 2.42304,-0.88716 4.09864,-1.50348 6.21475,-3.26343 5.23682,-4.35543 -0.29568,-0.33017 -0.43676,-0.34704 -2.09831,-0.25076 -0.97972,0.0568 -2.23056,0.15453 -2.77963,0.21725 -1.5545,0.17757 -1.14922,-0.21932 1.00624,-0.9854 3.52468,-1.25274 4.16511,-1.5347 5.01895,-2.20963 0.48094,-0.38017 0.96931,-0.94654 1.11329,-1.29111 0.24978,-0.59782 0.24469,-0.62403 -0.1945,-1.00181 -0.56728,-0.48794 -1.44229,-0.4983 -4.82494,-0.0572 -2.36757,0.30878 -3.20945,0.30549 -2.70419,-0.0105 0.12445,-0.0779 1.7381,-0.65088 3.58591,-1.27341 2.99624,-1.0094 3.44835,-1.21163 4.18015,-1.86956 1.04668,-0.94106 1.20619,-1.48694 0.60863,-2.08285 -0.39223,-0.39116 -0.56217,-0.43554 -1.57959,-0.41257 -0.62702,0.0142 -2.85302,0.30045 -4.94664,0.63619 -2.09363,0.33574 -4.00217,0.60739 -4.24123,0.60365 l -0.43464,-0.007 0.42413,-0.22738 c 0.23326,-0.12507 2.32499,-0.81335 4.64826,-1.52952 2.32328,-0.71618 4.49903,-1.44314 4.835,-1.61545 1.85599,-0.95197 1.92455,-2.64517 0.12079,-2.98356 -1.24666,-0.23387 -19.17724,3.1353 -24.02423,4.5142 -0.6065,0.17253 -3.08761,0.81847 -5.5136,1.4354 -2.42598,0.61692 -6.54845,1.68368 -9.16105,2.37056 -2.6126,0.68689 -5.09371,1.3008 -5.5136,1.36425 -0.7057,0.10664 -0.92375,0.28218 -2.88403,2.32171 -1.16634,1.21349 -2.14992,2.28546 -2.18574,2.38217 -0.0402,0.1086 0.0895,0.1334 0.3393,0.0649 0.55797,-0.15306 4.92762,-1.03488 7.19039,-1.45105 1.02637,-0.18878 3.46932,-0.64646 5.42877,-1.01706 1.95945,-0.37061 3.94434,-0.70657 4.41088,-0.74656 l 0.84824,-0.0727 -0.6786,0.30333 c -0.37323,0.16681 -2.39629,0.7639 -4.4957,1.32683 -2.09941,0.56292 -5.91651,1.60035 -8.48246,2.30539 -2.56594,0.70505 -5.10447,1.35302 -5.64119,1.43995 -1.03625,0.16782 -1.52391,0.4249 -1.94415,1.02489 -0.26442,0.3775 -0.25677,0.41855 0.28434,1.52697 0.22963,0.47039 0.90583,0.69527 1.87224,0.62266 0.51319,-0.0386 4.29971,-0.69065 8.4145,-1.4491 4.1148,-0.75846 7.70287,-1.37594 7.97351,-1.37221 l 0.49207,0.007 -0.42412,0.22815 c -0.23327,0.12549 -1.30206,0.47283 -2.37509,0.77185 -1.07303,0.29904 -3.40146,0.95175 -5.1743,1.45046 -9.88828,2.78172 -9.39064,2.60539 -9.84775,3.48933 -0.34993,0.6767 -0.0759,1.28823 0.72803,1.62453 0.76959,0.32192 1.73826,0.25317 4.8785,-0.34624 5.25922,-1.0039 11.1677,-1.98829 11.58864,-1.93075 l 0.45644,0.0624 -0.50895,0.21553 c -0.42215,0.17877 -11.04664,3.26978 -13.43698,3.90925 -0.89755,0.24013 -1.74662,0.94003 -1.74662,1.43979 0,0.75732 1.28624,1.45323 2.69032,1.45555 0.31334,0 2.22189,-0.29795 4.24123,-0.66328 9.05918,-1.63893 10.49799,-1.88015 11.13609,-1.8669 l 0.6786,0.0141 -0.50895,0.22368 c -0.48301,0.21229 -7.55731,2.3024 -11.19685,3.30813 -2.2474,0.62105 -2.56078,0.75838 -2.89522,1.26881 -0.23351,0.35636 -0.245,0.47883 -0.0652,0.69542 0.52147,0.62833 1.4653,0.86699 3.56609,0.90172 0.8891,0.0148 2.68989,-0.2376 5.8529,-0.82001 z m -23.73427,-5.16667 c 1.29064,-0.31852 2.94269,-0.70888 3.67122,-0.86745 0.86702,-0.18872 1.50333,-0.43872 1.84198,-0.72367 0.45544,-0.38323 0.50677,-0.51453 0.42869,-1.09668 -0.1812,-1.3509 -0.96219,-1.65788 -3.15817,-1.24131 l -1.40965,0.26741 -1.88881,1.97322 c -1.77195,1.85114 -2.12403,2.26763 -1.9169,2.26763 0.0467,0 1.14099,-0.26062 2.43164,-0.57915 z m 4.38755,-6.68234 c -0.11399,-0.11401 -0.59891,0.30913 -0.59891,0.52258 0,0.0963 0.15315,0.0365 0.34034,-0.13281 0.18718,-0.16942 0.30355,-0.34482 0.25857,-0.38977 z m -41.05515,-6.5225 c 2.7748,-2.88223 3.19389,-3.34667 3.10237,-3.4382 -0.14267,-0.14266 -4.15905,0.85088 -5.14323,1.27229 -0.91824,0.39318 -1.89876,1.22724 -2.12593,1.8084 -0.37628,0.96261 0.37725,1.57014 1.96053,1.58068 l 1.02213,0.007 1.18413,-1.22995 z m 1.41298,-4.3876 c 1.73936,-0.38377 3.31752,-0.79446 3.50704,-0.91265 0.46438,-0.28964 4.72981,-4.8231 4.63096,-4.92196 -0.043,-0.043 -0.34031,-0.002 -0.66071,0.0916 -0.54896,0.15996 -3.59888,0.8705 -8.81052,2.05261 -2.55549,0.57965 -4.57167,1.41326 -5.00031,2.06745 -0.16215,0.24748 -0.25911,0.67008 -0.22804,0.99391 0.0456,0.47544 0.17221,0.62295 0.81101,0.94508 1.08407,0.54666 2.09137,0.4913 5.75057,-0.31602 z m 56.22982,-2.52224 c 1.9775,-0.38138 4.12985,-0.81113 4.783,-0.95503 0.65315,-0.14388 3.0961,-0.63659 5.42878,-1.0949 5.15585,-1.01302 7.55922,-1.53965 10.00929,-2.19324 1.02638,-0.27381 3.73653,-0.99133 6.02255,-1.59448 4.59001,-1.21106 10.108,-2.81151 11.04899,-3.20467 0.3335,-0.13935 0.78198,-0.49999 0.99662,-0.80143 0.5009,-0.70346 0.32204,-1.31552 -0.51129,-1.74971 -0.69017,-0.35958 -2.28645,-0.31825 -4.40906,0.11415 -0.6998,0.14257 -2.91372,0.575 -4.91982,0.96097 -6.33857,1.21953 -11.7672,2.43638 -20.78202,4.65841 -3.54567,0.87396 -6.75204,1.63926 -7.12527,1.70069 -0.5945,0.0978 -0.95631,0.39901 -2.91973,2.43065 -1.23263,1.27545 -2.24416,2.4091 -2.24785,2.51921 -0.005,0.1429 0.14174,0.15764 0.51183,0.0515 0.2852,-0.0818 2.13648,-0.46074 4.11398,-0.84213 z m -105.29959,-1.9619 c 7.78108,-1.39694 14.46883,-2.73962 16.8604,-3.38505 1.16634,-0.31477 3.26575,-0.87994 4.66535,-1.25595 2.94982,-0.79247 7.93914,-2.31592 8.5558,-2.61245 0.59863,-0.28786 0.99952,-1.04624 0.757,-1.43204 -0.34226,-0.54442 -1.20913,-0.90815 -2.38811,-1.00202 -1.21309,-0.0966 -4.49032,0.44366 -12.07708,1.99082 -5.9186,1.20697 -21.01172,5.1678 -22.02202,5.77915 -0.77794,0.47074 -1.58111,1.44677 -1.58111,1.9214 0,0.53246 0.59226,0.93678 1.37221,0.93678 0.33997,0 2.97587,-0.42329 5.85756,-0.94064 z m 47.90619,-0.47914 c 1.35295,-0.32308 4.36847,-1.02015 6.70114,-1.54904 2.54406,-0.57683 4.36777,-1.07473 4.55745,-1.24427 0.69485,-0.62103 4.392,-4.62235 4.32909,-4.68524 -0.0371,-0.037 -1.05919,0.1594 -2.27149,0.43649 -1.21229,0.2771 -3.00577,0.68677 -3.98549,0.9104 -11.38788,2.59933 -12.86119,2.98678 -15.62575,4.10924 -0.7308,0.29672 -1.19982,1.11546 -0.97976,1.7103 0.0799,0.216 0.46544,0.54029 0.86768,0.72984 1.03306,0.48678 3.21506,0.34453 6.40713,-0.41772 z m 59.64877,-3.32916 c 0.2705,-0.0926 2.14349,-0.50943 4.1622,-0.92623 10.76023,-2.22164 27.88017,-6.50652 29.04452,-7.26944 0.46221,-0.30284 0.72758,-0.95359 0.56338,-1.38149 -0.17249,-0.44946 -1.16522,-0.80727 -2.47059,-0.89045 -1.12195,-0.0715 -1.99121,0.0636 -6.71749,1.04397 -5.44716,1.12989 -11.44292,2.45592 -16.03184,3.54559 -1.35295,0.32126 -2.80346,0.6345 -3.22334,0.69607 -0.41988,0.0616 -0.95626,0.18583 -1.19195,0.2761 -0.383,0.14672 -4.91541,4.73528 -4.91541,4.97632 0,0.14118 0.22061,0.12128 0.78052,-0.0704 z m -107.57465,-1.50542 c 9.39519,-1.79217 14.89684,-3.05201 22.00595,-5.03925 3.85767,-1.07835 4.30516,-1.26194 4.58781,-1.88229 0.17387,-0.38161 0.14983,-0.47538 -0.19306,-0.75304 -0.60219,-0.48762 -1.65375,-0.71057 -3.32841,-0.70568 -1.21906,0.004 -2.62119,0.23369 -6.95562,1.14159 -7.46328,1.56331 -18.54139,4.35722 -19.87685,5.01297 -2.44493,1.20056 -2.87197,3.16307 -0.65069,2.9904 0.37323,-0.029 2.35812,-0.37313 4.41087,-0.7647 z m 42.21515,0.57108 c 0.73133,-0.13994 1.62301,-0.25444 1.98151,-0.25444 0.61378,0 19.17047,-4.16572 20.59168,-4.62255 0.50756,-0.16313 1.19664,-0.77977 2.96886,-2.65668 2.65832,-2.81535 2.81387,-2.63519 -1.42439,-1.64965 -1.3996,0.32545 -4.41512,1.02064 -6.70114,1.54486 -4.03473,0.92523 -5.17668,1.19038 -11.29968,2.62366 -1.59612,0.37362 -3.50467,0.9 -4.24122,1.1697 -0.73655,0.26971 -2.25147,0.70111 -3.36648,0.95867 -1.63627,0.37796 -2.11892,0.55991 -2.50232,0.94332 -0.26127,0.26126 -0.47334,0.57633 -0.47126,0.70014 0.007,0.42316 0.60243,1.00361 1.27509,1.24321 0.87298,0.31093 1.5635,0.31088 3.18935,0 z m -1.49936,-4.91631 c 1.39961,-0.30971 3.1103,-0.61062 3.80155,-0.66867 0.69125,-0.0581 6.91313,-1.40408 13.8264,-2.99113 6.91328,-1.58705 12.73077,-2.92017 12.92776,-2.96251 0.197,-0.0423 1.40753,-1.18512 2.69009,-2.53954 2.60962,-2.75585 2.60806,-2.71921 0.0903,-2.11306 -0.79311,0.19095 -2.58715,0.60675 -3.98676,0.92401 -1.39961,0.31727 -3.68987,0.84155 -5.08947,1.16506 -13.63012,3.15055 -16.70027,3.8932 -18.27949,4.42169 -1.00293,0.33562 -3.78941,1.06593 -6.19219,1.62289 -2.40277,0.55695 -4.65991,1.09496 -5.01587,1.19557 -0.75482,0.21334 -1.30377,0.70333 -1.30377,1.16371 0,0.51617 0.92309,1.16909 1.82454,1.29052 0.44277,0.0596 0.88137,0.13149 0.97468,0.15967 0.24862,0.0751 0.90054,-0.0416 3.73227,-0.66821 z m -38.33623,-1.5171 c 8.64956,-1.80561 16.68733,-3.80063 17.38457,-4.31494 1.2952,-0.9554 0.0277,-1.55158 -3.29654,-1.55053 -2.31098,5.8e-4 -3.71656,0.20088 -7.73066,1.10082 -5.82863,1.30674 -7.91306,1.90503 -9.50911,2.72935 -1.52438,0.78732 -2.5935,1.76066 -2.49588,2.27229 0.0467,0.24487 0.72198,0.6754 1.0671,0.68037 0.0958,0.002 2.15701,-0.41144 4.58052,-0.91736 z m 115.95071,-0.42947 c 4.30114,-0.99038 15.2056,-3.68746 16.93946,-4.18976 0.99791,-0.28909 1.60203,-0.77186 1.52031,-1.21491 -0.029,-0.15754 -0.35822,-0.43913 -0.73144,-0.62575 -0.58821,-0.2941 -1.00628,-0.33807 -3.13851,-0.33012 -2.30017,0.009 -2.69126,0.0613 -6.02254,0.81139 -5.92737,1.33469 -7.25406,1.61462 -8.22798,1.73601 -0.93228,0.1162 -0.93501,0.1183 -3.17421,2.42732 -1.23264,1.27106 -2.24417,2.37718 -2.24785,2.45803 -0.004,0.0809 0.16505,0.0968 0.37499,0.0355 0.20994,-0.0614 2.32844,-0.55982 4.70777,-1.10768 z m -79.73286,-2.78565 c 6.19665,-1.43688 7.72045,-1.7533 9.85125,-2.04567 2.39226,-0.32825 25.05831,-5.56368 27.21485,-6.28613 0.93307,-0.31258 1.92552,-0.61403 2.20544,-0.66989 0.62075,-0.12388 3.95511,-3.53825 3.54497,-3.63004 -0.3676,-0.0823 -4.34343,0.59949 -7.27725,1.24787 -1.39961,0.30932 -4.91135,1.03152 -7.80386,1.60489 -6.63068,1.3144 -10.25698,2.11365 -12.01958,2.64918 -0.76048,0.23106 -2.33697,0.65429 -3.50331,0.9405 -1.16634,0.28622 -3.08087,0.77506 -4.25451,1.08631 -1.17364,0.31125 -4.99074,1.22235 -8.48245,2.02465 -7.33621,1.68566 -8.10888,1.88992 -8.5116,2.25015 -1.00584,0.89971 0.58738,1.87576 3.09833,1.89812 0.9936,0.009 2.30268,-0.22705 5.93772,-1.06994 z m -3.39521,-4.42748 c 3.77894,-0.86925 7.92113,-1.74175 9.20488,-1.93889 1.28375,-0.19714 3.68409,-0.70167 5.33409,-1.12118 1.65001,-0.4195 3.65335,-0.87637 4.45188,-1.01526 3.06683,-0.53343 13.23414,-3.37394 14.04528,-3.92392 l 0.46957,-0.31839 -0.55856,-0.0537 c -0.99453,-0.0956 -7.65838,0.65152 -11.29987,1.26689 l -3.54564,0.59918 -1.08491,-0.35614 c -0.59669,-0.19589 -1.25326,-0.31974 -1.45902,-0.27522 -0.20576,0.0445 -1.29021,0.27811 -2.40989,0.51911 -3.88886,0.83703 -4.55994,1.06421 -5.49084,1.85881 -0.80651,0.68842 -1.01168,0.76758 -3.53558,1.36413 -6.09198,1.43989 -15.47376,4.0982 -15.9007,4.50544 -0.0871,0.0831 -0.11616,0.19319 -0.0646,0.24474 0.18264,0.18264 2.78377,0.38949 3.87042,0.30778 0.60649,-0.0456 4.19457,-0.79412 7.97351,-1.66338 z m 88.5274,0.49187 c 1.70998,-0.42297 3.36966,-0.8933 3.68814,-1.04519 0.52522,-0.25044 0.90703,-0.79523 0.70144,-1.00082 -0.0449,-0.0449 -1.06345,-0.15535 -2.26334,-0.24535 -1.1999,-0.09 -2.31216,-0.20433 -2.47171,-0.25407 -0.20541,-0.064 -0.7501,0.38727 -1.86614,1.54623 -1.73965,1.80654 -1.91044,2.05344 -1.30189,1.8821 0.22245,-0.0626 1.80351,-0.45994 3.5135,-0.8829 z m -117.13559,0.53615 c 0.54757,-0.12883 1.15618,-0.39484 1.35248,-0.59113 l 0.3569,-0.3569 -0.36591,0 c -0.4805,0 -2.55722,0.43904 -3.15905,0.66786 -0.26004,0.0989 -0.42552,0.25624 -0.36774,0.34972 0.14549,0.23542 1.00311,0.20811 2.18332,-0.0695 z m 41.06449,-8.75286 c 1.57911,-0.37249 3.05172,-0.79559 3.27245,-0.94022 0.67162,-0.44006 0.96045,-1.24632 0.73989,-2.06538 -0.15832,-0.58796 -0.30934,-0.75693 -0.95662,-1.07027 l -0.76863,-0.37209 -3.2554,0.71401 c -3.46903,0.76086 -3.87044,0.90342 -4.52924,1.60852 -0.76128,0.81478 -0.46168,2.27444 0.56157,2.73598 0.69492,0.31344 1.376,0.2292 4.93598,-0.61055 z m 10.67173,-1.77166 c 6.42376,-0.86569 14.70535,-1.41311 21.10888,-1.39531 l 1.23086,0.004 0.77232,-0.80604 c 0.54825,-0.57217 0.72344,-0.86493 0.60385,-1.00903 -0.11452,-0.138 -0.009,-0.82645 0.32824,-2.14982 0.27319,-1.07074 0.49728,-2.06858 0.49797,-2.2174 5.9e-4,-0.14883 0.15367,-0.40853 0.33994,-0.57711 0.24821,-0.22462 0.29068,-0.36439 0.15896,-0.52311 -0.2083,-0.25098 0.54543,-4.52772 0.86605,-4.91404 0.10514,-0.1267 0.14406,-0.3788 0.0865,-0.56021 -0.11548,-0.36387 0.54532,-4.59006 0.76002,-4.86073 0.074,-0.0933 0.13143,-0.43685 0.12759,-0.76342 -0.01,-0.85435 0.66869,-4.57371 0.88142,-4.83004 0.0988,-0.11903 0.13202,-0.34048 0.0738,-0.49211 -0.13956,-0.36369 0.58184,-4.33071 0.87156,-4.79279 0.12418,-0.19807 0.18518,-0.51546 0.13552,-0.70532 -0.0949,-0.36299 0.73694,-4.58023 0.96108,-4.87228 0.0716,-0.0933 0.12905,-0.37065 0.12767,-0.61632 -0.004,-0.69322 0.89219,-4.42695 1.16632,-4.85966 0.13468,-0.21258 0.19977,-0.45947 0.14464,-0.54866 -0.0907,-0.14676 0.59731,-2.9984 1.18649,-4.91773 0.12888,-0.41988 0.52072,-1.79405 0.87075,-3.05368 0.35002,-1.25965 0.73679,-2.44086 0.85949,-2.6249 0.12269,-0.18405 0.22308,-0.49878 0.22308,-0.6994 0,-0.55707 1.35654,-4.69525 1.64598,-5.02111 0.14024,-0.15788 0.21947,-0.38691 0.17609,-0.50895 -0.10543,-0.29651 1.50083,-4.8679 1.84348,-5.24652 0.14829,-0.16386 0.22497,-0.37016 0.17041,-0.45845 -0.11328,-0.18327 1.47844,-4.47686 1.89807,-5.11997 0.39638,-0.60748 0.42624,-1.4866 0.0572,-1.6841 -0.87631,-0.46899 -8.78856,-1.77918 -14.10403,-2.33549 -4.11365,-0.43052 -16.87894,-0.42979 -20.95167,0.001 -6.27786,0.66436 -12.09246,1.69171 -17.51784,3.09512 -6.51221,1.68458 -16.15751,5.21603 -16.15751,5.91581 0,0.12377 0.11257,0.31846 0.25015,0.43264 0.25444,0.21116 1.77444,2.5606 2.493,3.85339 0.21745,0.39122 0.91595,1.65086 1.55223,2.79921 0.63628,1.14836 1.23078,2.20243 1.32113,2.34239 0.29153,0.45165 3.31016,6.66044 3.87661,7.97351 0.30189,0.6998 0.72804,1.65925 0.947,2.1321 0.65468,1.41383 2.92145,7.1058 3.19018,8.01069 0.13735,0.4625 0.36147,1.06064 0.49806,1.3292 0.23078,0.45377 2.28543,6.48716 3.6038,10.5824 1.41615,4.39895 3.36874,11.34698 5.24437,18.6614 0.70584,2.75256 1.37019,5.21763 1.47634,5.47794 0.16026,0.39299 0.73126,0.96873 0.96076,0.96873 0.0332,0 1.44765,-0.18696 3.14317,-0.41545 z m 28.41858,-3.97988 c 1.22769,-1.29775 2.23216,-2.39793 2.23216,-2.44487 0,-0.10684 -1.87129,0.3169 -2.86281,0.64826 -1.17538,0.39283 -2.14857,1.29819 -2.55068,2.37292 -0.1908,0.50996 -0.30602,1.03379 -0.25603,1.16405 0.0915,0.23838 0.67547,0.58636 1.01986,0.60769 0.10193,0.006 1.18981,-1.05031 2.4175,-2.34805 z m -40.67167,0.91546 c 1.43669,-0.32771 2.92352,-0.74023 3.30406,-0.91672 1.65093,-0.76569 1.46965,-2.93944 -0.28452,-3.41179 -0.53399,-0.14378 -1.09081,-0.0727 -3.32363,0.42445 -3.75009,0.83494 -3.95445,0.90323 -4.58276,1.53155 -0.57458,0.57458 -0.63922,0.82995 -0.44979,1.77711 0.14416,0.72081 0.90971,1.18975 1.94366,1.19059 0.42945,3.4e-4 1.95629,-0.26748 3.39298,-0.59519 z m 41.97075,-4.475 c 0.74647,-0.17504 1.63309,-0.36687 1.97029,-0.42629 0.51411,-0.0906 1.00268,-0.51829 3.02634,-2.6494 1.32729,-1.39775 2.308,-2.54138 2.17935,-2.54138 -0.12864,0 -0.65073,0.10567 -1.1602,0.23484 -0.50946,0.12915 -2.18594,0.52224 -3.72551,0.87353 -3.9124,0.89269 -4.87413,1.43409 -5.34115,3.00673 -0.32382,1.09041 -0.32458,1.07671 0.082,1.48332 0.43039,0.4304 1.19265,0.43518 2.96885,0.0187 z m -43.31347,-0.44696 c 3.38949,-0.78023 3.61147,-0.85903 4.11898,-1.46217 0.80975,-0.96233 0.41436,-2.30381 -0.81771,-2.77434 -0.76936,-0.29383 -0.78594,-0.29234 -3.5375,0.31782 -3.79036,0.84051 -3.93047,0.88703 -4.54371,1.50869 -0.48395,0.49058 -0.53194,0.62753 -0.4577,1.30596 0.0628,0.57369 0.21136,0.87267 0.61124,1.22996 0.71245,0.63658 1.39458,0.61801 4.6264,-0.12592 z m -1.35719,-4.91983 c 3.3895,-0.78023 3.61147,-0.85902 4.11898,-1.46216 0.73319,-0.87135 0.48717,-2.12379 -0.51013,-2.59705 -0.96429,-0.45758 -2.45479,-0.27332 -6.77923,0.83811 -1.08779,0.27956 -2.12062,1.13455 -2.12062,1.75547 0,1.14767 0.91621,2.06179 2.06767,2.06296 0.3441,3.4e-4 1.7946,-0.26845 3.22333,-0.59733 z m 48.2333,-0.67748 c 2.23937,-0.51286 4.2707,-1.01303 4.51406,-1.1115 0.7325,-0.29638 1.22955,-1.13691 1.30722,-2.21057 0.0615,-0.84978 0.0253,-0.98606 -0.32668,-1.23263 -0.2209,-0.15471 -0.72617,-0.27723 -1.14339,-0.27723 -0.7324,0 -4.96434,0.90833 -7.15434,1.53557 -1.86225,0.53338 -2.87594,1.6782 -2.87917,3.25161 -0.001,0.49169 0.6149,0.96268 1.27142,0.97227 0.18661,0.003 2.17151,-0.41466 4.41088,-0.92752 z m -49.31507,-4.29884 c 2.78972,-0.65734 3.35138,-0.90613 3.99657,-1.77029 0.28166,-0.37726 0.31172,-0.55951 0.18013,-1.09224 -0.33679,-1.36341 -2.23955,-1.59691 -5.84285,-0.71702 -3.14284,0.76745 -4.08005,1.44118 -3.83345,2.75572 0.17097,0.91131 0.95265,1.44727 2.13862,1.46633 0.32657,0.005 1.83901,-0.28388 3.36098,-0.6425 z m 58.37492,-0.82997 c 1.64368,-1.5482 34.2855,-36.09402 34.2855,-36.28538 0,-0.24719 -3.48875,-2.52754 -6.44667,-4.21373 -4.72891,-2.69576 -12.32955,-6.23742 -16.40547,-7.64442 -1.17204,-0.4046 -1.46028,-0.44903 -1.82745,-0.28174 -0.35041,0.15967 -0.41543,0.28023 -0.33149,0.61467 0.14059,0.56015 -1.5067,4.82306 -2.01694,5.21951 -0.27812,0.2161 -0.322,0.3362 -0.17625,0.48246 0.23998,0.24084 -1.16659,4.63576 -1.65697,5.1772 -0.19699,0.21753 -0.25612,0.40923 -0.15693,0.50895 0.19487,0.19598 -1.04257,4.56155 -1.40862,4.96945 -0.14241,0.15867 -0.21643,0.46379 -0.17089,0.70413 0.10496,0.55369 -0.87566,4.54869 -1.20617,4.9139 -0.16248,0.17953 -0.19622,0.34097 -0.0928,0.44434 0.16696,0.16698 -0.65924,4.55306 -0.94385,5.01055 -0.0802,0.12885 -0.12514,0.39393 -0.1,0.58907 0.0603,0.46693 -0.62161,4.44939 -0.82777,4.83462 -0.0882,0.16478 -0.12178,0.40056 -0.0747,0.52396 0.0472,0.12339 -0.0735,1.29314 -0.26801,2.59944 -0.19455,1.3063 -0.35755,2.52777 -0.36223,2.71438 -0.005,0.18661 -0.14451,1.48443 -0.31073,2.88403 -0.16624,1.39961 -0.35034,3.34634 -0.40913,4.32606 -0.0588,0.97972 -0.14822,1.99126 -0.19875,2.24785 -0.13049,0.6627 0.12597,0.58404 1.10626,-0.3393 z m -8.59457,-0.21769 c 2.05137,-0.46963 3.93876,-0.96196 4.1942,-1.09406 0.59577,-0.30808 1.49857,-1.33477 1.62834,-1.85178 0.2022,-0.80568 0.015,-1.34298 -0.59078,-1.6955 -0.5684,-0.33078 -0.60907,-0.33156 -2.03579,-0.0394 -2.42895,0.49745 -5.60714,1.28668 -6.23091,1.54731 -1.37802,0.57578 -2.09292,1.48609 -2.09458,2.66708 -0.001,0.69927 0.0578,0.83239 0.46543,1.05351 0.25659,0.13921 0.57179,0.25616 0.70043,0.25989 0.12866,0.004 1.9123,-0.37745 3.96366,-0.84708 z m -51.33734,-3.81295 c 2.13975,-0.50559 3.00897,-0.86867 3.75202,-1.56725 0.58731,-0.55218 0.67216,-0.94938 0.35262,-1.65069 -0.2643,-0.58008 -0.72532,-0.68501 -2.93977,-0.66913 -2.09439,0.015 -2.77925,0.18375 -5.05303,1.24477 -1.64406,0.76719 -1.91598,1.10599 -1.57721,1.96518 0.46263,1.17334 2.36682,1.40926 5.46537,0.67712 z m 52.28511,-1.62275 c 1.64881,-0.38012 3.23828,-0.80507 3.53216,-0.94432 0.82435,-0.39058 1.73929,-1.40497 1.9402,-2.1511 0.1602,-0.59494 0.14036,-0.71436 -0.17024,-1.02497 -1.03679,-1.03679 -7.00467,0.13231 -9.54551,1.86996 -0.99112,0.67781 -1.33138,2.17202 -0.60972,2.6775 0.58601,0.41045 1.61204,0.32016 4.85311,-0.42707 z m -55.4463,-3.20792 c 2.05173,-0.12802 2.17341,-0.15768 3.74577,-0.91292 1.99607,-0.95877 2.30127,-1.25381 2.08423,-2.01491 -0.12503,-0.43847 -0.30038,-0.60257 -0.84764,-0.79327 -0.65662,-0.2288 -0.87792,-0.1974 -4.57508,0.64924 -2.15656,0.49385 -4.01717,1.00879 -4.18197,1.15739 -0.8607,0.77613 0.27969,2.5144 1.39961,2.13337 0.13996,-0.0476 1.20875,-0.14612 2.37508,-0.2189 z m 56.35311,-2.23081 c 1.87605,-0.42904 4.30555,-1.58786 4.96026,-2.36592 0.34674,-0.4121 0.44426,-0.69004 0.40534,-1.1553 l -0.0513,-0.61267 -0.93306,0.011 c -2.76829,0.0324 -7.60911,1.22517 -8.73446,2.15218 -0.64165,0.52855 -0.95777,1.64253 -0.59138,2.084 0.32269,0.3888 3.01939,0.32707 4.94455,-0.11321 z m -59.57532,-2.52374 c 0.32596,-0.0941 1.77596,-0.44467 3.22221,-0.77896 3.88257,-0.89742 4.49445,-1.2458 4.08402,-2.32531 -0.37829,-0.99498 -1.11663,-1.01456 -4.98812,-0.1323 -1.60215,0.36511 -3.1802,0.71784 -3.50677,0.78385 -1.01133,0.20441 -1.52685,0.55049 -1.52685,1.025 0,0.50802 0.41288,1.3628 0.71745,1.48534 0.37203,0.14969 1.381,0.1206 1.99806,-0.0576 z m 60.64844,-3.58043 c 2.05276,-0.48001 3.98915,-1.0272 4.3031,-1.216 0.98832,-0.59431 1.37114,-2.04049 0.61613,-2.32754 -0.3799,-0.14444 -3.80327,0.52544 -7.93273,1.55225 -1.25265,0.31148 -2.2787,1.69516 -1.93029,2.6031 0.15972,0.41623 0.98308,0.31433 4.94379,-0.61181 z m -62.34605,-1.25531 c 0.51319,-0.13899 1.81101,-0.44925 2.88403,-0.68948 2.82632,-0.63273 3.63138,-0.88553 4.04387,-1.26981 0.48078,-0.44792 0.46439,-0.92536 -0.0494,-1.43914 -0.32587,-0.32587 -0.5926,-0.41642 -1.22668,-0.41642 -0.7613,0 -7.31815,1.3734 -8.1589,1.70896 -0.72196,0.28814 -0.70015,1.2066 0.0463,1.95311 0.48196,0.48197 1.1029,0.52052 2.46072,0.15278 z m 61.81444,-3.83454 c 1.22546,-0.29076 2.98055,-0.70777 3.9002,-0.92668 1.96711,-0.46827 2.71759,-0.95066 3.01302,-1.93673 0.23422,-0.78177 0.0212,-1.18848 -0.62247,-1.18848 -0.8252,0 -7.78871,1.71741 -8.33667,2.05607 -0.96306,0.59519 -1.41593,1.96677 -0.77304,2.34122 0.40647,0.23675 0.32138,0.24717 2.81896,-0.3454 z m -60.96619,-1.58954 c 3.39914,-0.81727 4.28209,-1.15553 4.38293,-1.67911 0.17843,-0.92652 -0.44984,-1.46183 -1.71567,-1.46183 -0.81731,0 -7.39884,1.43355 -8.22327,1.79115 -0.62166,0.26964 -0.70076,0.65119 -0.29689,1.43217 0.55357,1.0705 1.08921,1.06296 5.8529,-0.0824 z m 63.94365,-4.33703 c 1.99463,-0.47124 3.83767,-0.96594 4.09562,-1.09933 0.60753,-0.31417 1.12469,-0.97957 1.26782,-1.63125 0.24609,-1.12045 -0.30246,-1.12789 -4.82974,-0.0655 -4.24481,0.99609 -4.71556,1.26133 -5.18105,2.91928 -0.10761,0.38328 0.24298,0.71804 0.76288,0.72844 0.14182,0.003 1.88984,-0.3804 3.88447,-0.85163 z m -69.28419,0.36332 c 0.65128,-0.1781 2.40473,-0.60544 3.89657,-0.94964 2.92438,-0.67472 3.56895,-0.9202 3.72745,-1.41957 0.14333,-0.45158 -0.20854,-1.1366 -0.69851,-1.35984 -0.69729,-0.31771 -1.58727,-0.21735 -4.91439,0.55416 -1.76114,0.40839 -3.50744,0.79655 -3.88067,0.8626 -0.7634,0.13509 -1.27237,0.51144 -1.27237,0.94082 0,0.46605 0.7324,1.41672 1.18945,1.54395 0.64096,0.17841 0.68291,0.1747 1.95247,-0.17248 z m -0.1951,-5.20434 c 4.53924,-1.08815 4.92656,-1.20528 5.28095,-1.59687 0.29567,-0.3267 0.29782,-0.38087 0.0368,-0.92811 -0.2079,-0.43596 -0.44613,-0.63179 -0.95357,-0.78382 -0.61096,-0.18305 -1.05088,-0.11891 -4.54511,0.66262 -2.12776,0.47591 -4.11668,0.91269 -4.41981,0.97062 -0.30313,0.0579 -0.66164,0.26308 -0.79669,0.45588 -0.21818,0.3115 -0.2079,0.42432 0.0923,1.01277 0.61701,1.20943 1.05224,1.2264 5.30508,0.20691 z m 69.16172,-0.30898 c 0.8822,-0.2246 2.40559,-0.57666 3.38532,-0.78234 2.71654,-0.57033 3.5061,-1.09985 3.97927,-2.66867 0.0931,-0.30873 0.029,-0.4143 -0.33553,-0.55291 -0.35879,-0.13642 -1.21376,0.004 -4.19586,0.6861 -4.33191,0.99174 -4.97502,1.2946 -5.36767,2.52786 -0.21733,0.68258 -0.21124,0.76146 0.0748,0.97064 0.4186,0.30609 0.60002,0.29277 2.45963,-0.18068 z m -73.88644,-3.81212 c 0.65127,-0.1752 2.47703,-0.61094 4.05725,-0.9683 3.3841,-0.76531 3.86381,-1.03093 3.49029,-1.93267 -0.24518,-0.59193 -1.00048,-1.0217 -1.79561,-1.0217 -0.47483,0 -7.49014,1.54994 -8.63938,1.90874 -0.82583,0.25785 -0.95795,0.73456 -0.41492,1.49718 0.64554,0.90656 1.40918,1.02606 3.30237,0.51675 z m 77.8027,-2.32055 c 1.80511,-0.42513 3.58442,-0.94044 3.95402,-1.14513 0.68868,-0.38141 1.17151,-1.03299 1.37389,-1.85404 0.0988,-0.40092 0.0486,-0.48944 -0.36992,-0.6512 -0.75802,-0.29305 -2.68815,-0.0354 -3.98288,0.5316 -0.61793,0.27063 -1.75406,0.63887 -2.52476,0.81832 -1.68151,0.39154 -2.68458,1.03012 -3.02562,1.92616 -0.53545,1.40686 0.004,1.45096 4.57527,0.37429 z m -77.42552,-2.99508 c 2.16878,-0.5163 4.05825,-1.03419 4.19882,-1.15085 0.38245,-0.31741 0.31028,-0.78315 -0.21095,-1.36133 -0.75579,-0.83839 -1.20854,-0.81905 -5.91005,0.25237 -4.66121,1.06225 -5.08982,1.19055 -5.2342,1.56681 -0.1291,0.33643 0.47048,1.29925 0.96229,1.54529 0.64752,0.32393 2.08285,0.12643 6.19409,-0.85229 z m 80.20273,-2.28437 c 1.44168,-0.35309 3.35056,-1.30724 3.92564,-1.96222 0.26911,-0.3065 0.59923,-0.8904 0.73361,-1.29755 0.2352,-0.71269 0.22969,-0.7521 -0.14805,-1.05799 -0.51916,-0.42038 -0.78936,-0.40585 -3.51025,0.18886 -3.57167,0.78065 -6.18203,2.26989 -6.44611,3.67757 -0.0793,0.42241 -0.0449,0.64541 0.11482,0.74408 0.33428,0.20661 4.14628,-0.003 5.33034,-0.29275 z m -87.18802,-1.31246 c 0.46014,-0.13178 2.24895,-0.5555 3.97513,-0.94159 3.2733,-0.73211 4.28626,-1.09172 4.37455,-1.55297 0.0876,-0.45796 -0.77013,-1.31419 -1.44306,-1.44043 -0.93185,-0.17481 -3.85393,0.24037 -5.56105,0.79014 -0.83976,0.27045 -2.20934,0.64905 -3.04351,0.84136 -0.83418,0.1923 -1.61668,0.43263 -1.73891,0.53407 -0.30894,0.25641 -0.26843,0.66774 0.11052,1.12211 0.73461,0.88083 1.79231,1.08666 3.32633,0.64731 z m 88.9602,-4.27734 c 3.2375,-0.76523 4.57528,-1.58541 5.28447,-3.23989 0.406,-0.94716 0.40517,-1.1787 -0.005,-1.39824 -0.56581,-0.30282 -1.53244,-0.19339 -4.49977,0.50938 -3.70275,0.87695 -4.95761,1.60583 -5.71588,3.32003 -0.3072,0.69446 -0.31807,0.81353 -0.0947,1.03691 0.32798,0.32798 1.23717,0.52358 1.98639,0.42735 0.32657,-0.0419 1.69661,-0.33694 3.04453,-0.65554 z m -92.41774,-0.13752 c 0.58896,-0.13397 1.98694,-0.32856 3.10662,-0.43242 2.3002,-0.21334 3.25051,-0.47156 4.38627,-1.19185 0.84205,-0.534 0.95889,-0.86637 0.52326,-1.48833 -0.61028,-0.87129 -2.62925,-1.35809 -4.35817,-1.05081 -2.05205,0.3647 -3.95408,0.89163 -4.87741,1.35122 -0.51319,0.25543 -1.23844,0.56091 -1.61167,0.67883 -0.74175,0.23437 -1.27237,0.62199 -1.27237,0.92949 0,0.27169 0.84345,1.05308 1.35719,1.25734 0.61113,0.24297 1.52102,0.22526 2.74628,-0.0535 z m -3.00075,-4.2509 c 2.3459,-0.22981 5.4411,-0.84101 6.58039,-1.29943 0.50932,-0.20493 0.79935,-0.61031 0.79935,-1.11725 0,-0.49569 -1.05447,-1.39478 -1.95297,-1.66519 -1.24001,-0.37319 -2.24627,-0.30166 -5.14632,0.3658 -2.84902,0.65573 -5.29061,1.64917 -5.63508,2.29282 -0.16345,0.30541 -0.11169,0.421 0.37715,0.8422 1.0298,0.88731 1.40453,0.93106 4.97748,0.58105 z m 97.0393,-1.19038 c 3.28189,-0.76622 3.8784,-0.9754 4.99491,-1.75158 0.67737,-0.47091 1.07795,-0.92369 1.50384,-1.6998 0.55908,-1.01885 0.56942,-1.07014 0.28033,-1.38959 -0.20187,-0.22306 -0.52078,-0.33169 -0.97376,-0.33169 -1.00038,0 -6.52736,1.34309 -7.4747,1.8164 -1.17153,0.58533 -2.22162,1.61621 -2.56669,2.51974 -0.28077,0.7352 -0.2806,0.78827 0.004,1.10216 0.43109,0.47634 1.28373,0.42283 4.23261,-0.26564 z m -101.10609,-2.88449 c 0.98828,-0.089 5.83754,-1.19544 6.43735,-1.46873 0.22315,-0.10168 0.50174,-0.41667 0.61909,-0.69999 0.20441,-0.4935 0.18566,-0.53907 -0.44698,-1.08594 -1.50818,-1.30372 -3.53548,-1.36301 -8.20293,-0.23992 -3.0119,0.72472 -3.72139,0.98244 -4.39145,1.59512 -0.54836,0.50141 -0.474,0.85838 0.28894,1.38709 1.00586,0.69706 2.3271,0.81592 5.69598,0.51237 z m 103.7915,-2.96323 c 3.70471,-0.85851 3.88435,-0.91297 4.83586,-1.46602 1.31802,-0.76606 1.86189,-1.24659 2.39913,-2.11973 0.62607,-1.01751 0.6445,-1.3929 0.0809,-1.64968 -0.61113,-0.27846 -0.56143,-0.28548 -4.59804,0.64953 -3.72533,0.86291 -4.65899,1.21846 -5.91224,2.2515 -0.61728,0.50882 -1.27235,1.71175 -1.27235,2.3365 0,0.3896 0.4363,0.66095 1.07375,0.6678 0.26399,0.003 1.79083,-0.29862 3.39298,-0.6699 z M 149.63262,125.41 c 1.79782,-0.41463 3.47557,-0.85299 3.72833,-0.97414 0.25277,-0.12115 0.53547,-0.43607 0.62823,-0.69983 0.14621,-0.41576 0.11288,-0.52276 -0.25053,-0.80419 -1.02683,-0.79524 -1.87753,-1.06216 -3.629,-1.13868 -1.59758,-0.0698 -1.96095,-0.0167 -5.5271,0.80855 -4.25528,0.98465 -4.835,1.21764 -4.835,1.9432 0,0.40137 0.14538,0.5613 0.89552,0.98509 1.82005,1.02826 4.14531,0.99723 8.98955,-0.12 z m -6.40727,-3.72 c 4.07415,-0.96108 4.71827,-1.18937 4.8513,-1.71936 0.13979,-0.557 0.0188,-0.69178 -1.17379,-1.3078 -1.03177,-0.53295 -1.08461,-0.54131 -3.42304,-0.54136 -2.15754,-6e-5 -2.61592,0.0578 -5.00464,0.63149 -5.39072,1.2947 -5.66033,1.38565 -5.81054,1.96003 -0.11857,0.45342 -0.0143,0.55315 1.14519,1.0952 2.23679,1.04569 4.60785,1.01592 9.41552,-0.1182 z m 115.30252,-0.53472 c 4.12425,-0.92227 4.64104,-1.07445 5.82695,-1.71601 1.69463,-0.91676 3.53348,-2.88736 3.28896,-3.52459 -0.24344,-0.63437 -1.22183,-0.56919 -5.00843,0.33367 -3.26536,0.77858 -3.69271,0.9384 -5.40579,2.02165 -0.7931,0.50151 -1.64654,1.0047 -1.8965,1.11818 -0.24998,0.11349 -0.63169,0.5451 -0.84825,0.95915 l -0.39376,0.75281 0.40051,0.32817 c 0.54537,0.44685 0.93489,0.42051 4.03631,-0.27303 z m -122.52415,-3.05053 c 4.3197,-0.99335 5.10102,-1.29002 5.10102,-1.93691 0,-0.3319 -0.20413,-0.48007 -1.27237,-0.92356 -1.24327,-0.51617 -1.3325,-0.528 -3.90193,-0.51718 -2.34321,0.01 -2.8882,0.0711 -5.00465,0.56253 -4.12218,0.9571 -6.3975,1.55674 -6.90723,1.82033 -0.65381,0.3381 -0.59119,0.91773 0.12127,1.12245 2.55258,0.73349 2.93853,0.79115 5.34395,0.79849 2.38968,0.007 2.57581,-0.0192 6.51994,-0.92615 z m -13.30591,-2.17846 c 2.73047,-0.52211 8.76319,-2.01915 9.24588,-2.29441 0.27992,-0.15962 0.53279,-0.4539 0.56193,-0.65396 0.0439,-0.30146 -0.0723,-0.3962 -0.6786,-0.55333 -0.40237,-0.10428 -1.16592,-0.30812 -1.69677,-0.45298 -0.76133,-0.20775 -1.58543,-0.24687 -3.90193,-0.18523 -3.16571,0.0842 -3.82384,0.20231 -11.54416,2.07098 -3.35518,0.81211 -4.33042,1.14999 -4.48546,1.55403 -0.16428,0.4281 0.15761,0.58005 1.57074,0.74143 1.95369,0.22311 9.38214,0.0691 10.92837,-0.22653 z M 264.27,114.6204 c 2.29921,-0.52747 3.20884,-0.82441 4.48581,-1.46434 1.56311,-0.78334 2.96479,-1.93977 3.68688,-3.04182 0.28439,-0.43403 0.28108,-0.45606 -0.11643,-0.77794 -0.50759,-0.41103 -0.82281,-0.37192 -5.0874,0.63113 -3.53768,0.83207 -4.0358,1.01275 -5.62504,2.04022 -1.04607,0.6763 -2.51812,2.28775 -2.51812,2.75658 0,0.10287 0.17177,0.30991 0.38171,0.46011 0.474,0.3391 0.9354,0.28095 4.79259,-0.60394 z m -6.05647,-0.36242 c 0.27069,-0.27069 0.25773,-0.47502 -0.0301,-0.47502 -0.28773,0 -0.65287,0.41407 -0.49997,0.56697 0.16206,0.16205 0.30002,0.13812 0.5301,-0.0919 z m 10.89928,-5.98686 c 3.49417,-0.82207 4.08913,-1.02525 5.92991,-2.02507 1.38649,-0.75306 3.22333,-2.42494 3.22333,-2.93384 0,-0.48609 -0.34206,-0.72609 -1.03487,-0.72609 -0.8162,0 -7.22438,1.45149 -8.57928,1.94325 -1.56944,0.56963 -3.53966,1.86895 -4.30807,2.84106 -0.75475,0.95482 -0.78536,1.08139 -0.37199,1.53816 0.37959,0.41945 0.94819,0.34895 5.14097,-0.63747 z m -7.17633,-0.22844 c 0.62056,-0.73631 0.43898,-0.91973 -0.45356,-0.45819 -0.44816,0.23176 -0.69073,0.57051 -0.69073,0.96465 0,0.29383 0.74933,-0.0378 1.14429,-0.50646 z m 3.16485,-5.35374 c 0.5588,-0.23348 1.45893,-1.22267 1.45893,-1.60327 0,-0.27067 -0.43061,-0.24526 -1.02146,0.0603 -0.75325,0.38953 -1.59973,1.77948 -1.0837,1.77948 0.0442,0 0.33496,-0.10642 0.64623,-0.23648 z m 8.99746,-0.79855 c 3.73814,-0.86559 4.75949,-1.23783 6.1774,-2.251437 0.83983,-0.60037 1.6042,-1.77636 1.52267,-2.34268 -0.0303,-0.21013 -0.26002,-0.49676 -0.51061,-0.63695 -0.41922,-0.23453 -0.65639,-0.21001 -2.96886,0.30698 -4.55604,1.01856 -6.77909,2.00706 -8.57031,3.810887 -0.98428,0.99119 -1.1611,1.39369 -0.7798,1.775 0.35001,0.34999 1.27583,0.23055 5.12951,-0.6618 z m -4.6691,-5.234537 c 0.61656,-0.31455 1.7881,-1.41092 2.09649,-1.96197 0.0956,-0.17085 0.0556,-0.28766 -0.12191,-0.35576 -0.66745,-0.25613 -1.89006,0.45787 -2.70356,1.57887 -0.81541,1.1236 -0.55083,1.39176 0.72898,0.73886 z m 9.11837,-1.01609 c 2.54095,-0.56225 3.01692,-0.76685 3.7644,-1.61816 1.75419,-1.99792 -1.01907,-2.58586 -4.45144,-0.94373 -0.9723,0.46517 -2.74508,1.81359 -3.03141,2.30576 -0.19462,0.33453 0.33522,0.75619 0.94623,0.75303 0.29658,-0.002 1.54408,-0.22514 2.77222,-0.4969 z m -4.01954,-5.22597 c 1.06851,-0.53448 2.90715,-2.3432 2.76322,-2.71827 -0.14249,-0.37132 -1.11935,-0.14708 -2.20357,0.50584 -0.91994,0.55399 -2.25089,2.00069 -2.25089,2.44665 0,0.36665 0.6776,0.27281 1.69124,-0.23422 z m 6.05296,-6.56922 c 1.90593,-0.96299 3.79589,-2.703 3.38368,-3.11521 -0.2188,-0.21879 -0.36088,-0.22427 -0.98403,-0.0379 -1.34277,0.40154 -2.41605,1.06743 -3.65309,2.26647 -0.96042,0.93091 -1.18712,1.24014 -1.03954,1.41797 0.30324,0.36539 0.70034,0.27338 2.29298,-0.53131 z m 7.4394,-6.85958 c 2.1863,-1.05548 4.68323,-2.85067 4.62341,-3.32405 -0.13977,-1.10597 -4.50037,0.65488 -6.70591,2.70792 -1.02062,0.95005 -1.19869,1.19175 -1.02876,1.39649 0.30944,0.37285 1.16919,0.15721 3.11126,-0.78036 z m 7.35793,-6.45521 c 2.77669,-0.9354 9.35251,-4.36548 9.35251,-4.87844 0,-1.49137 -6.74042,0.82224 -10.30619,3.53754 -0.86309,0.65722 -1.56925,1.25159 -1.56925,1.32081 0,0.46315 1.17984,0.47254 2.52293,0.0201 z m 13.25444,-12.37941 c 0,-0.22472 1.66554,-0.98228 2.82162,-1.2834 1.3811,-0.35972 2.60715,-0.31764 2.60715,0.0895 0,0.2379 -1.76151,0.81254 -3.33379,1.08757 -1.74115,0.30455 -2.09498,0.32251 -2.09498,0.10634 z"
       id="path3629"
       inkscape:connector-curvature="0" />
    <g
       id="g3041"
       transform="matrix(1.2223088,0,0,2.74714,-23.054175,-1449.1612)"
       style="fill:#28170b">
      <text
         sodipodi:linespacing="125%"
         id="text3017"
         y="695.07373"
         x="85.241409"
         style="font-size:40px;font-style:normal;font-variant:normal;font-weight:normal;font-stretch:normal;line-height:125%;letter-spacing:0px;word-spacing:0px;fill:#28170b;fill-opacity:1;stroke:none;font-family:Action Man Extended;-inkscape-font-specification:Action Man Extended"
         xml:space="preserve"><tspan
           y="695.07373"
           x="85.241409"
           id="tspan3019"
           sodipodi:role="line">N</tspan></text>
      <text
         sodipodi:linespacing="125%"
         id="text3021"
         y="694.96619"
         x="122.28936"
         style="font-size:40px;font-style:normal;font-variant:normal;font-weight:normal;font-stretch:normal;line-height:125%;letter-spacing:0px;word-spacing:0px;fill:#28170b;fill-opacity:1;stroke:none;font-family:Action Man Extended;-inkscape-font-specification:Action Man Extended"
         xml:space="preserve"><tspan
           y="694.96619"
           x="122.28936"
           id="tspan3023"
           sodipodi:role="line">O</tspan></text>
      <text
         sodipodi:linespacing="125%"
         id="text3025"
         y="695.22089"
         x="156.56079"
         style="font-size:40px;font-style:normal;font-variant:normal;font-weight:normal;font-stretch:normal;line-height:125%;letter-spacing:0px;word-spacing:0px;fill:#28170b;fill-opacity:1;stroke:none;font-family:Action Man Extended;-inkscape-font-specification:Action Man Extended"
         xml:space="preserve"><tspan
           y="695.22089"
           x="156.56079"
           id="tspan3027"
           sodipodi:role="line">B</tspan></text>
      <text
         sodipodi:linespacing="125%"
         id="text3029"
         y="694.18341"
         x="193.89893"
         style="font-size:40px;font-style:normal;font-variant:normal;font-weight:normal;font-stretch:normal;line-height:125%;letter-spacing:0px;word-spacing:0px;fill:#28170b;fill-opacity:1;stroke:none;font-family:Action Man Extended;-inkscape-font-specification:Action Man Extended"
         xml:space="preserve"><tspan
           y="694.18341"
           x="193.89893"
           id="tspan3031"
           sodipodi:role="line">U</tspan></text>
      <text
         sodipodi:linespacing="125%"
         id="text3033"
         y="694.71771"
         x="225.9545"
         style="font-size:40px;font-style:normal;font-variant:normal;font-weight:normal;font-stretch:normal;line-height:125%;letter-spacing:0px;word-spacing:0px;fill:#28170b;fill-opacity:1;stroke:none;font-family:Action Man Extended;-inkscape-font-specification:Action Man Extended"
         xml:space="preserve"><tspan
           y="694.71771"
           x="225.9545"
           id="tspan3035"
           sodipodi:role="line">G</tspan></text>
      <text
         sodipodi:linespacing="125%"
         id="text3037"
         y="694.45703"
         x="264.12756"
         style="font-size:40px;font-style:normal;font-variant:normal;font-weight:normal;font-stretch:normal;line-height:125%;letter-spacing:0px;word-spacing:0px;fill:#28170b;fill-opacity:1;stroke:none;font-family:Action Man Extended;-inkscape-font-specification:Action Man Extended"
         xml:space="preserve"><tspan
           y="694.45703"
           x="264.12756"
           id="tspan3039"
           sodipodi:role="line">S</tspan></text>
    </g>
  </g>
</svg>
