<?xml version="1.0" encoding="UTF-8" standalone="no"?>
<!-- Created with Inkscape (http://www.inkscape.org/) -->

<svg
   xmlns:dc="http://purl.org/dc/elements/1.1/"
   xmlns:cc="http://creativecommons.org/ns#"
   xmlns:rdf="http://www.w3.org/1999/02/22-rdf-syntax-ns#"
   xmlns:svg="http://www.w3.org/2000/svg"
   xmlns="http://www.w3.org/2000/svg"
   xmlns:sodipodi="http://sodipodi.sourceforge.net/DTD/sodipodi-0.dtd"
   xmlns:inkscape="http://www.inkscape.org/namespaces/inkscape"
   width="726.36774"
   height="846.22797"
   id="svg3380"
   version="1.1"
   inkscape:version="0.48.5 r10040"
   sodipodi:docname="New document 22">
  <defs
     id="defs3382" />
  <sodipodi:namedview
     id="base"
     pagecolor="#ffffff"
     bordercolor="#666666"
     borderopacity="1.0"
     inkscape:pageopacity="0.0"
     inkscape:pageshadow="2"
     inkscape:zoom="0.86772068"
     inkscape:cx="236.6996"
     inkscape:cy="384.74158"
     inkscape:document-units="px"
     inkscape:current-layer="layer1"
     showgrid="false"
     fit-margin-top="9"
     fit-margin-left="9"
     fit-margin-right="9"
     fit-margin-bottom="9"
     inkscape:window-width="1800"
     inkscape:window-height="997"
     inkscape:window-x="60"
     inkscape:window-y="38"
     inkscape:window-maximized="0" />
  <metadata
     id="metadata3385">
    <rdf:RDF>
      <cc:Work
         rdf:about="">
        <dc:format>image/svg+xml</dc:format>
        <dc:type
           rdf:resource="http://purl.org/dc/dcmitype/StillImage" />
        <dc:title></dc:title>
      </cc:Work>
    </rdf:RDF>
  </metadata>
  <g
     inkscape:label="Layer 1"
     inkscape:groupmode="layer"
     id="layer1"
     transform="translate(-8.6340208,-87.008385)">
    <path
       style="fill:#000000"
       d="m 362.63739,924.01577 c -27.86745,-0.99409 -55.82756,-5.36921 -82.3569,-12.88698 C 239.70316,899.63015 204.80405,882.79243 167.58518,856.75686 142.38749,839.13043 118.07362,816.64546 97.939134,792.34959 50.404414,734.99044 22.564969,664.29408 17.982398,589.30498 17.299906,578.1367 17.678485,546.52467 18.611975,536.73421 21.967056,501.54604 29.483627,469.68856 41.888406,438.08173 66.734594,374.77475 110.70841,318.96941 167.20947,279.04204 c 4.22326,-2.98444 4.21184,-2.952 1.67992,-4.77099 -1.19257,-0.85679 -2.24983,-1.55778 -2.34948,-1.55778 -0.0996,0 -2.76634,-1.41537 -5.926,-3.14527 -7.04993,-3.8598 -8.35299,-4.38808 -12.9469,-5.2489 -12.98599,-2.43336 -25.53822,-2.86438 -45.04828,-1.5469 -9.737996,0.6576 -14.339666,0.81261 -15.403466,0.51888 -1.44295,-0.39842 -15.91188,-9.05222 -19.59044,-11.71696 -4.98834,-3.61353 -3.30628,-6.14756 4.55749,-6.86588 10.03672,-0.9168 23.70431,-3.53621 43.891846,-8.41192 5.76626,-1.39268 8.64157,-2.32615 11.1955,-3.63466 2.35019,-1.20411 3.98535,-1.75978 5.17266,-1.75783 1.78373,0.003 8.72578,1.13135 14.45224,2.34919 4.41063,0.938 4.7416,1.06243 4.7416,1.78269 0,0.94548 2.11647,1.5767 4.40711,1.31438 2.37857,-0.27239 6.10974,0.71669 14.67184,3.88932 3.60603,1.33619 5.69204,2.33689 5.81074,2.78755 0.12811,0.48634 0.81636,0.76369 2.23283,0.8998 2.44234,0.23467 16.19234,6.87628 16.87443,8.15078 0.2376,0.44397 0.86696,0.80721 1.39857,0.80721 0.5316,0 1.34917,0.26083 1.81681,0.57962 0.46764,0.31879 1.74471,1.09734 2.83793,1.73011 l 1.98767,1.1505 6.63343,-3.28623 c 41.84474,-20.73008 82.46353,-32.22369 129.48397,-36.63917 9.90254,-0.9299 39.2494,-1.30024 50.505,-0.63733 25.78857,1.51883 51.35689,5.76216 75.32993,12.50181 2.58973,0.72806 5.32382,1.32375 6.07571,1.32375 1.45701,0 2.79393,-1.09557 2.79393,-2.28955 0,-1.13133 7.35098,-13.22364 8.49401,-13.97258 0.59305,-0.38859 0.93268,-0.93665 0.79793,-1.28773 -0.32601,-0.84961 7.59022,-12.73654 9.40268,-14.11899 0.93056,-0.70975 1.4086,-1.39757 1.29454,-1.86264 -0.26639,-1.08642 8.86072,-13.09583 10.84059,-14.26399 1.09971,-0.64884 1.50387,-1.14222 1.32261,-1.61456 -0.27704,-0.72198 0.61753,-1.90641 7.21193,-9.54876 2.28528,-2.64844 4.50905,-4.78044 5.52883,-5.30071 1.28575,-0.65594 1.64525,-1.06172 1.45938,-1.64732 -0.18354,-0.5783 1.43658,-2.52013 6.33543,-7.59351 5.26494,-5.45248 7.04421,-7.0211 8.89145,-7.83886 1.89069,-0.837 2.26864,-1.17818 2.08458,-1.88193 -0.17557,-0.67145 0.78133,-1.76943 4.37197,-5.01644 7.61695,-6.88802 11.97112,-10.35206 13.71723,-10.91304 2.0154,-0.6475 3.20821,-1.62908 3.05976,-2.51789 -0.0666,-0.39885 1.51998,-1.917 3.98432,-3.81241 5.05722,-3.8897 13.11445,-9.67159 15.10864,-10.84197 1.57326,-0.92333 6.33422,-1.79238 5.89105,-1.07533 -0.13871,0.22443 -0.0776,0.68974 0.13578,1.03405 0.94095,1.51817 8.61221,-0.0151 20.67683,-4.13259 5.17011,-1.7645 6.44435,-2.02862 11.42295,-2.36775 3.08204,-0.20994 6.3796,-0.57902 7.32792,-0.82018 3.57474,-0.90907 8.3891,-0.30692 6.68135,0.83566 -0.35562,0.23793 -2.19838,0.92783 -4.09502,1.53311 -4.29399,1.37034 -5.38818,2.06368 -5.38818,3.41424 0,0.79459 0.4917,1.33768 2.02419,2.23579 3.76806,2.20822 10.43656,2.89329 16.0801,1.65193 3.26683,-0.71857 6.83623,-0.81468 7.75898,-0.20892 0.91117,0.59813 0.17631,1.02705 -4.09501,2.39016 -4.2802,1.36594 -5.38819,2.06526 -5.38819,3.40078 0,0.79852 0.52067,1.33395 2.27097,2.33537 3.82544,2.1887 9.68058,2.74694 16.132,1.53805 4.4578,-0.83532 5.95162,-0.72016 5.95162,0.45882 0,0.69111 -0.6568,1.08194 -3.31136,1.97039 -3.83458,1.28342 -4.66315,1.85523 -4.66315,3.21819 0,1.3007 3.107,3.05836 6.89687,3.90166 1.54102,0.3429 3.2383,0.72077 3.77173,0.83971 0.77318,0.1724 0.96987,0.51344 0.96987,1.68148 0,3.12403 0.041,3.09871 -11.32044,6.98937 -34.83844,11.93019 -65.25563,27.16124 -91.40491,45.76991 -18.85761,13.41968 -37.92026,30.98799 -51.75112,47.69431 -3.16563,3.82376 -3.72147,4.70964 -3.23291,5.1526 0.32449,0.29421 2.7237,1.47151 5.33158,2.61622 31.20499,13.69719 61.20027,32.81925 87.99544,56.09729 28.0489,24.36717 50.65047,51.259 72.26743,85.98535 26.61301,42.75222 44.12516,92.14016 50.26786,141.76615 2.10631,17.01662 2.3883,22.14203 2.39546,43.53652 0.007,21.39121 -0.3373,27.7381 -2.38606,43.96757 -4.85967,38.49606 -16.21516,76.49154 -33.17289,110.99656 -38.33416,78.00109 -105.33422,139.983 -185.55529,171.65766 -45.60286,18.00593 -93.95082,26.38964 -142.25,24.66671 z m 21.3372,-77.36749 c 20.6222,-0.80021 44.87767,-4.96652 66.39349,-11.40432 7.82174,-2.34037 14.95729,-4.88613 15.65719,-5.58604 0.75499,-0.75499 -0.24346,-2.70374 -1.8769,-3.66331 -1.27303,-0.74784 -2.14048,-0.87052 -5.60133,-0.79207 -4.59332,0.10406 -8.06198,0.67262 -17.45772,2.86152 -9.82312,2.28851 -22.70101,5.26791 -28.23407,6.5322 -4.914,1.12285 -9.72155,2.23157 -22.19931,5.11963 -3.5562,0.8231 -11.2182,2.58124 -17.02666,3.90699 -13.91856,3.17688 -13.36988,2.97803 -9.05215,3.28007 3.65459,0.25566 7.56964,0.20424 19.39746,-0.25467 z m -29.38983,-1.68982 c 2.29522,-0.58153 24.73444,-5.80509 49.86492,-11.60782 47.12401,-10.88111 51.46857,-12.05479 53.77406,-14.52689 1.30058,-1.39459 1.4249,-1.9875 0.63288,-3.01906 -1.50455,-1.95957 -4.52789,-2.59939 -10.00805,-2.11794 -4.07754,0.35825 -7.98267,1.15238 -24.35485,4.9526 -9.4135,2.18501 -16.85837,3.90475 -24.35458,5.62578 -3.5562,0.81646 -9.86038,2.27028 -14.00928,3.23075 -4.1489,0.96043 -9.58019,2.21269 -12.06953,2.7828 -2.48934,0.57012 -7.43569,1.71052 -10.99189,2.53422 -3.5562,0.82366 -11.60614,2.67499 -17.88876,4.11403 -18.65933,4.27395 -22.48388,5.33693 -21.73069,6.03972 0.21641,0.2019 3.40009,0.7837 7.07483,1.29282 15.04802,2.08488 18.22698,2.17725 24.06094,0.69899 z M 308.2389,830.3849 c 3.00949,-16.02196 4.50372,-28.10282 5.46208,-44.1612 1.46412,-24.53283 -0.94802,-52.44241 -6.45411,-74.67702 -0.966,-3.90087 -1.81836,-7.15452 -1.89413,-7.2303 -0.0758,-0.0758 -0.44175,-0.0211 -0.81331,0.12147 -0.83427,0.32015 -89.70761,93.98042 -89.87252,94.7133 -0.25381,1.12794 17.57722,11.74723 30.99363,18.45832 17.82025,8.91395 34.50443,15.28567 52.31866,19.98059 5.86621,1.54606 7.47442,1.87017 8.19004,1.65068 0.23708,-0.0727 1.16842,-4.05786 2.06966,-8.85584 z m 77.06493,-5.87584 c 38.72054,-8.9427 59.07604,-13.83168 61.20975,-14.70142 3.24964,-1.32454 5.13658,-2.88711 5.13658,-4.25364 0,-1.11618 -1.46179,-2.49012 -3.29192,-3.09411 -2.172,-0.7168 -10.5197,-0.25954 -15.0279,0.82322 -1.89664,0.4555 -6.45504,1.51852 -10.12978,2.36223 -3.67474,0.8437 -15.11924,3.49352 -25.43222,5.88842 -10.31298,2.39494 -22.04845,5.10993 -26.07881,6.03334 -4.03036,0.9234 -10.33453,2.37787 -14.00927,3.23222 -3.67474,0.85435 -8.71808,2.01811 -11.20742,2.5862 -18.62143,4.24946 -21.359,5.04437 -25.2745,7.339 -3.72339,2.18205 -5.14567,5.38086 -3.06734,6.8986 0.79414,0.57994 1.71186,0.6699 5.06489,0.49632 3.36689,-0.17428 14.41027,-2.59435 62.10794,-13.61038 z m 98.12208,-1.62184 c 43.81209,-19.60174 82.12836,-50.36524 110.78271,-88.94553 9.33277,-12.56563 17.57087,-26.00712 25.13014,-41.00304 16.10179,-31.94226 24.79991,-62.12906 28.73837,-99.73629 1.09354,-10.44234 1.09552,-39.83819 0.004,-50.64891 -4.22425,-41.81294 -15.69125,-77.98067 -35.89922,-113.22825 -6.38538,-11.13769 -18.35055,-29.04782 -19.36073,-28.98028 -0.23708,0.0159 -15.85203,16.31481 -34.69989,36.21989 -18.84787,19.9051 -38.3908,40.54464 -43.42876,45.86566 -5.03795,5.32102 -9.15991,9.87193 -9.15991,10.11314 0,0.24121 0.63042,0.4397 1.40093,0.4411 2.41434,0.004 9.84163,1.24957 14.2967,2.39685 16.33115,4.20564 29.11744,13.28529 35.57753,25.26396 2.22368,4.12326 4.94342,12.40403 5.83837,17.7761 0.82823,4.97161 0.95483,16.80138 0.23337,21.80506 -2.18635,15.16291 -9.25547,30.51505 -19.39818,42.12744 -8.41225,9.63114 -24.4752,21.47101 -38.16424,28.13054 -7.58066,3.68789 -13.4474,5.7454 -20.39177,7.15146 -7.11805,1.44123 -12.95013,1.73835 -20.52411,1.04565 l -6.14369,-0.56192 -2.33347,1.07151 c -3.14627,1.44472 -7.14943,4.05209 -17.63595,11.48674 -10.51163,7.45242 -11.24313,8.02978 -12.03063,9.49502 -0.98819,1.83862 -1.88732,22.08948 -1.93559,43.59475 -0.0474,21.11202 0.27539,25.55028 2.76107,37.96556 3.51147,17.53879 7.6102,25.09363 29.44863,54.28012 10.68416,14.27912 14.11751,19.43112 17.03355,25.56016 2.39425,5.03235 1.74323,4.94562 9.86141,1.31351 z M 382.89695,811.81631 c 33.10629,-7.65872 54.12383,-12.72024 55.95941,-13.47636 2.98934,-1.23139 5.03482,-2.81948 5.03482,-3.90902 0,-1.44265 -1.44861,-2.74905 -3.80935,-3.43533 -3.41246,-0.99203 -8.27238,-0.55326 -17.62492,1.5912 -4.21405,0.9662 -11.44442,2.62714 -16.06748,3.69094 -4.62306,1.0638 -10.4423,2.39934 -12.93164,2.96786 -2.48934,0.56856 -7.43569,1.70766 -10.99189,2.53137 -3.5562,0.82366 -11.60615,2.68176 -17.88877,4.12907 -6.28262,1.44731 -14.0416,3.23489 -17.24218,3.97242 -18.41491,4.24348 -22.5232,5.57544 -25.77062,8.35509 -1.06478,0.91142 -1.86879,2.03626 -2.05214,2.871 -0.25662,1.16846 -0.11984,1.52869 0.92009,2.42322 2.44224,2.1007 4.11393,1.78728 62.46467,-11.71146 z m -2.17284,-12.76158 c 33.69369,-7.82498 49.36087,-11.64283 50.86444,-12.39485 2.76083,-1.38084 4.11629,-2.62452 4.09888,-3.76086 -0.0589,-3.84467 -7.38204,-4.82225 -18.18505,-2.42762 -6.55088,1.45205 -29.01342,6.62061 -32.88121,7.56587 -1.42248,0.34761 -4.72005,1.11057 -7.32793,1.69543 -2.60788,0.5849 -7.65122,1.73848 -11.20742,2.56357 -3.5562,0.82503 -11.60614,2.67809 -17.88876,4.11786 -15.09099,3.45831 -16.41684,3.81505 -20.56483,5.53306 -4.09901,1.69771 -6.59161,4.0092 -6.59161,6.1127 0,2.21618 1.24987,2.69672 6.46582,2.48589 4.04386,-0.16341 9.71366,-1.38769 53.21767,-11.49105 z m -4.49102,-12.2945 c 24.05401,-5.56086 44.31827,-10.28526 45.03169,-10.49859 2.63481,-0.78797 5.80048,-2.68724 6.40631,-3.84354 1.10986,-2.11821 -0.52804,-4.11037 -4.02933,-4.90079 -2.15465,-0.48645 -8.98192,0.25143 -14.49205,1.56623 -2.58501,0.61684 -6.73676,1.58404 -9.2261,2.14937 -2.48934,0.56533 -7.43569,1.70293 -10.99189,2.52801 -3.5562,0.82508 -11.2182,2.59133 -17.02666,3.92496 -5.80846,1.33364 -13.47046,3.09989 -17.02666,3.92497 -15.05925,3.49404 -17.31669,4.01066 -18.75087,4.29128 -0.82978,0.16234 -3.42768,1.00048 -5.7731,1.86254 -7.48995,2.75285 -10.55908,6.77157 -6.80565,8.91124 2.61775,1.49227 6.49514,0.76249 52.68431,-9.91568 z m -3.25039,-12.54778 c 22.04844,-5.07429 40.76699,-9.42445 41.59677,-9.66701 2.83887,-0.82982 7.00993,-3.21502 7.69413,-4.39986 0.93416,-1.61762 0.27421,-3.34662 -1.66399,-4.3596 -2.77409,-1.44976 -7.76787,-0.79732 -25.89501,3.38322 -8.87051,2.04574 -18.55287,4.27805 -21.51638,4.96071 -2.9635,0.68266 -8.39478,1.93841 -12.06952,2.7906 -3.67474,0.8522 -8.81507,2.03367 -11.42295,2.62551 -16.98692,3.85514 -22.20402,5.5341 -25.10127,8.07788 -2.68229,2.35511 -2.84149,4.63401 -0.39757,5.6916 2.93066,1.26825 7.05948,0.4977 48.77579,-9.10305 z m -1.19323,-12.94737 c 22.41643,-5.16632 39.39057,-9.29264 41.33966,-10.04948 4.87432,-1.89268 6.89178,-4.17222 5.92417,-6.69376 -0.75249,-1.961 -6.85503,-2.60228 -12.66387,-1.3308 -3.79504,0.83069 -26.29981,6.01847 -43.10546,9.93667 -2.48934,0.58042 -7.92063,1.83716 -12.06953,2.79281 -20.775,4.78531 -24.61458,6.06179 -27.35394,9.09391 -1.71721,1.90074 -1.82062,2.36916 -0.83401,3.77772 2.13342,3.04588 4.41542,2.69366 48.76298,-7.52707 z m -0.74652,-13.09648 c 39.64476,-9.1615 42.34409,-9.92736 44.96919,-12.75839 1.42844,-1.54055 1.53432,-3.57664 0.24659,-4.74238 -0.70091,-0.63456 -1.70504,-0.85276 -4.41831,-0.96026 -3.64213,-0.14428 -5.59865,0.20246 -19.89132,3.52525 -3.5562,0.82676 -14.12781,3.26606 -23.49248,5.42068 -9.36466,2.15463 -19.06339,4.39499 -21.55273,4.9786 -2.48934,0.5836 -6.65979,1.55753 -9.26767,2.16432 -7.15303,1.6643 -12.35988,3.81104 -14.20953,5.85838 -1.61016,1.78224 -1.86887,2.81147 -0.98514,3.91915 1.15163,1.44351 2.21079,1.68465 6.57358,1.49658 3.68315,-0.1588 9.80022,-1.45443 42.02782,-8.90193 z m -1.54404,-12.93237 c 20.40833,-4.71362 37.90081,-8.8539 38.87218,-9.2006 4.78293,-1.70706 8.10475,-4.51806 7.84932,-6.64229 -0.19265,-1.60219 -2.08244,-2.80427 -4.74821,-3.02032 -2.45903,-0.19927 -6.16534,0.50533 -22.10943,4.20326 -5.21576,1.20971 -11.51993,2.665 -14.00927,3.23399 -2.48934,0.56895 -7.43569,1.70956 -10.99189,2.53464 -3.5562,0.82504 -11.60615,2.67651 -17.88877,4.11437 -14.48776,3.31568 -14.63615,3.35447 -18.70145,4.8914 -4.32346,1.63447 -6.73077,3.69457 -6.73077,5.75992 0,1.18368 0.26892,1.63482 1.40093,2.35028 2.84027,1.79513 6.27359,1.19506 47.05736,-8.22465 z M 196.10247,692.32656 c 24.73764,-26.08889 45.80986,-48.38381 46.82716,-49.54426 1.32345,-1.50968 1.69133,-2.19389 1.29316,-2.40515 -0.30606,-0.16242 -2.98115,-0.40722 -5.94465,-0.54408 -14.00839,-0.64675 -29.3141,-6.81786 -43.27551,-17.44823 -6.04201,-4.60047 -14.37857,-13.0772 -19.27706,-19.60121 -9.03926,-12.03884 -13.01346,-23.15229 -13.59996,-38.03087 -0.54809,-13.90419 2.13903,-26.65862 8.26419,-39.22597 4.98343,-10.22482 10.46718,-17.04781 17.462,-21.72657 7.14843,-4.7815 13.67054,-6.63994 23.2699,-6.63064 7.11907,0.007 13.44548,1.10054 21.76825,3.76306 2.60788,0.83427 5.25287,1.52043 5.87776,1.5248 0.62489,0.004 5.47425,-1.33605 10.77637,-2.9787 11.66688,-3.6145 19.27098,-5.80536 29.23132,-8.42197 4.13687,-1.08677 7.87089,-2.29206 8.2978,-2.67841 0.42692,-0.38636 0.77621,-1.28067 0.77621,-1.98736 0,-2.46545 -4.76999,-24.65505 -8.26629,-38.45404 -1.2014,-4.7416 -2.47225,-9.88193 -2.82411,-11.42295 -0.35187,-1.54102 -0.78263,-3.09281 -0.95725,-3.44843 -0.17463,-0.35562 -1.05751,-3.16825 -1.96196,-6.25029 -0.90446,-3.08204 -2.48673,-8.1008 -3.51616,-11.1528 -1.02942,-3.05199 -1.87168,-5.99394 -1.87168,-6.53766 0,-0.54372 -0.18083,-1.05323 -0.40184,-1.13226 -0.57695,-0.20631 -4.40136,-10.68719 -4.08592,-11.19758 0.14495,-0.23453 -0.0303,-0.65598 -0.38956,-0.93655 -0.71177,-0.55597 -4.60588,-9.81351 -4.60588,-10.94967 0,-0.385 -0.2766,-1.00624 -0.61466,-1.38053 -1.0308,-1.14126 -4.72359,-9.66745 -4.64185,-10.71745 0.0426,-0.54712 -0.21984,-1.09856 -0.59051,-1.2408 -0.74112,-0.28439 -5.54721,-9.41959 -5.56479,-10.57731 -0.006,-0.40335 -0.32636,-0.98527 -0.71162,-1.29316 -0.92181,-0.73669 -5.98087,-9.62843 -5.98087,-10.51191 0,-0.37734 -0.38461,-1.00813 -0.8547,-1.40175 -1.09845,-0.91976 -6.47322,-9.43071 -6.47322,-10.25033 0,-0.3422 -0.28704,-0.73233 -0.63786,-0.86696 -0.35082,-0.13462 -1.04556,-0.90443 -1.54385,-1.71068 -0.59007,-0.95476 -1.23961,-1.46593 -1.86274,-1.46593 -0.52621,0 -4.15605,2.09946 -8.06631,4.66547 -16.51458,10.83726 -29.31777,21.17782 -43.23147,34.9161 -20.86117,20.59815 -36.91112,42.05971 -50.82855,67.96656 -18.56495,34.55806 -29.258406,71.84044 -32.207326,112.28972 -0.62878,8.62467 -0.62993,30.64975 -0.002,39.22597 3.14572,42.96791 14.947906,82.09478 35.821296,118.75554 6.80231,11.94715 18.62857,29.01463 19.80208,28.57802 0.18986,-0.0706 20.58507,-21.47389 45.32271,-47.56278 z m 173.00074,29.78475 c 32.65418,-7.54828 38.82907,-9.09564 41.4897,-10.39678 4.46381,-2.18295 6.49359,-5.42133 4.51841,-7.20887 -1.24429,-1.12604 -4.49769,-1.64663 -7.52671,-1.20437 -3.60557,0.52649 -29.26908,6.4975 -36.32613,8.45182 -8.58886,2.37856 -16.78622,4.28154 -26.72539,6.20421 -16.17159,3.12825 -21.44813,4.79893 -24.06303,7.61898 -1.68344,1.81551 -1.58466,3.7947 0.24727,4.95424 1.24591,0.78861 1.87789,0.86249 5.71147,0.66779 3.59775,-0.18273 10.65444,-1.68538 42.67441,-9.08702 z m -37.28623,-4.80402 c 2.25226,-0.56365 5.51341,-1.51067 7.247,-2.10458 6.19839,-2.12337 26.70155,-6.8129 36.72057,-8.39884 6.58632,-1.04259 29.12045,-6.10662 32.57287,-7.32008 5.01582,-1.76289 8.25127,-5.1805 7.16384,-7.56717 -1.26595,-2.77849 -7.22315,-2.59262 -17.96845,0.56063 -4.03036,1.18273 -9.65329,2.77324 -12.4954,3.53452 -2.8421,0.76124 -10.02466,3.09252 -15.96122,5.18055 -13.99919,4.92389 -20.06493,6.2099 -34.56191,7.32749 -11.70736,0.90254 -14.21756,1.53839 -16.547,4.19149 -1.09331,1.24519 -1.29128,1.77034 -1.07504,2.85151 0.33147,1.65737 0.60347,1.92591 2.67035,2.63646 2.22178,0.76383 7.01428,0.41442 12.23439,-0.89198 z m -9.31016,-11.98521 c 1.3052,-0.54533 2.84434,-2.12821 2.84434,-2.92514 0,-0.17432 -0.88554,-0.8359 -1.96786,-1.4702 -1.62964,-0.95504 -2.52752,-1.16191 -5.22397,-1.20359 -3.02189,-0.0467 -3.31639,0.0293 -4.09422,1.05897 -1.11753,1.47908 -0.66743,3.23718 1.10553,4.31831 1.61938,0.98746 5.24143,1.0969 7.33618,0.22165 z m 26.99411,-7.60975 c 8.83429,-1.59077 16.62815,-4.28572 22.43762,-7.75856 5.35011,-3.19825 5.88675,-3.66396 5.29496,-4.59538 -1.14382,-1.80026 -8.27648,-0.12497 -19.1222,4.49137 -9.19375,3.9132 -9.88244,4.07683 -17.67323,4.19942 -3.67474,0.0578 -7.00169,0.24484 -7.39322,0.41562 -0.97698,0.42619 -1.27958,1.86186 -0.54686,2.59456 0.54941,0.54943 1.96252,1.11079 4.27611,1.69875 1.41986,0.36083 7.84901,-0.16747 12.72682,-1.04578 z m -18.38956,-7.52523 c 0.35703,-0.35704 0.78466,-1.07612 0.95029,-1.598 0.43623,-1.37442 -1.77914,-3.06058 -5.25857,-4.00243 l -2.81468,-0.76189 -2.12048,2.08859 c -1.16626,1.14872 -2.12048,2.2364 -2.12048,2.41701 0,0.37842 2.28874,1.62007 3.87671,2.10311 2.01463,0.61279 6.78499,0.45584 7.48721,-0.24639 z m 67.45487,-2.17704 c 9.82004,-1.61318 12.92276,-2.59676 15.29737,-4.84941 1.64269,-1.55834 2.54561,-3.38235 2.20522,-4.45486 -0.37535,-1.18264 -2.94414,-2.21493 -4.65916,-1.87228 -7.08516,1.41536 -21.69207,8.00502 -24.05471,10.85184 -0.45077,0.54313 -0.40291,0.76245 0.27449,1.25777 1.04588,0.76478 0.12147,0.84362 10.93679,-0.93306 z m -49.07409,-3.5584 c 5.54412,-1.9256 13.54998,-6.84558 13.08994,-8.04442 -0.50459,-1.31494 -2.90515,-1.61267 -7.144,-0.88604 -6.74203,1.1557 -16.87994,3.68074 -17.99022,4.48077 -0.57775,0.41632 -1.23378,1.30692 -1.45784,1.9791 -0.34759,1.04277 -0.25667,1.33933 0.61941,2.02057 0.56472,0.43916 1.6087,0.98828 2.31994,1.22027 1.88635,0.61533 7.81907,0.18269 10.56277,-0.77025 z m 30.75809,-5.03295 c 4.18132,-1.21173 12.67051,-4.77306 16.43965,-6.8967 3.43613,-1.93604 7.95457,-5.26921 8.27506,-6.10438 1.12959,-2.94367 -8.22882,-0.96047 -20.89508,4.42792 -6.09503,2.59293 -8.38555,3.74449 -11.62599,5.84502 -2.79089,1.80909 -3.35709,2.9163 -1.93975,3.79315 1.0696,0.66171 5.4328,0.18492 9.74611,-1.06501 z m -37.44136,-4.39852 c 17.59095,-3.84527 26.3873,-6.55492 38.14833,-11.75128 5.69935,-2.51814 11.63847,-5.97395 11.63847,-6.77213 0,-0.80939 -1.44987,-1.43826 -3.31233,-1.4367 -2.73589,0.004 -8.61257,1.17165 -25.99938,5.17343 -9.12758,2.10078 -17.64322,3.95846 -18.92364,4.12816 -2.61066,0.34601 -2.39672,0.1773 -9.07846,7.15892 -2.42548,2.53434 -4.2889,4.80375 -4.14094,5.04316 0.38954,0.63029 3.76783,0.18337 11.66795,-1.54356 z m 24.57011,-18.88614 c 22.29763,-5.17731 28.41117,-6.78877 36.20858,-9.54437 6.49848,-2.29657 9.97481,-3.96174 11.25096,-5.3893 1.42796,-1.59736 1.54271,-2.41417 0.48057,-3.42094 -0.8943,-0.84767 -1.2573,-0.88689 -5.69676,-0.61615 -4.60313,0.28075 -7.65957,0.87009 -23.49248,4.52978 -4.1489,0.95901 -11.61692,2.64051 -16.5956,3.73669 -4.97868,1.09617 -9.73106,2.15708 -10.56084,2.35761 -1.17381,0.28367 -2.77643,1.7099 -7.22016,6.42555 -3.14131,3.33352 -5.71147,6.26797 -5.71147,6.52104 0,0.27208 0.39621,0.34648 0.96987,0.18199 0.53343,-0.15289 9.69873,-2.30476 20.36733,-4.7819 z m 39.75503,3.67207 c 5.05617,-1.21217 15.26928,-5.85196 20.40021,-9.26776 2.3913,-1.59197 4.45948,-3.18545 4.59596,-3.54112 0.35844,-0.93409 -0.72343,-1.44498 -2.46381,-1.16346 -3.41536,0.55249 -16.37383,5.34344 -21.76209,8.04585 -3.40882,1.70965 -7.98068,4.61203 -7.98068,5.0664 0,0.75862 1.40254,1.71625 2.50935,1.71336 0.63504,0 2.75051,-0.38562 4.70106,-0.85327 z m -23.37496,-20.73554 c 21.38241,-4.96377 27.79977,-6.92084 30.04024,-9.16133 1.13597,-1.13596 1.22245,-1.42839 0.95942,-3.24421 -0.15901,-1.09763 -0.38729,-2.16458 -0.50731,-2.37101 -0.51973,-0.89401 -12.7641,0.59369 -21.38212,2.59792 -3.58814,0.83448 -9.33653,2.08833 -12.77419,2.78634 -5.34036,1.0844 -6.41442,1.43972 -7.37766,2.44067 -10.03352,10.42631 -11.97378,12.75236 -9.97229,11.95513 0.41489,-0.16522 9.87115,-2.41684 21.01391,-5.00351 z m 58.73131,-1.64137 c 3.96782,-1.38114 5.71135,-2.36619 5.71135,-3.22679 0,-1.19975 -4.69647,-2.52425 -9.69872,-2.73526 -4.45658,-0.18798 -4.83229,-0.13832 -6.2503,0.82642 -0.82978,0.56455 -1.56949,1.44727 -1.64381,1.96156 -0.11543,0.79879 0.21434,1.03664 2.26304,1.63223 1.31899,0.38342 2.39816,0.86349 2.39816,1.06682 0,0.76676 1.39793,1.72422 2.50935,1.71866 0.63504,-0.004 2.75495,-0.56283 4.71093,-1.24364 z M 242.58868,630.3222 c 2.01518,-0.34286 5.40974,-0.93479 7.54346,-1.31541 2.13372,-0.38062 4.5584,-0.79245 5.38818,-0.91526 1.25044,-0.18505 2.45022,-1.19798 7.00912,-5.91773 3.30509,-3.42171 5.25652,-5.74704 4.88933,-5.82618 -1.82992,-0.39428 -18.22346,3.36723 -32.15802,7.37871 -11.28708,3.24933 -11.59686,3.36046 -12.66062,4.54146 -2.05294,2.2792 0.86092,3.12605 9.85877,2.86522 3.5562,-0.10306 8.1146,-0.46791 10.12978,-0.81081 z m 225.44156,-0.28178 c 12.58097,-1.12988 29.86225,-5.38978 40.94156,-10.0922 3.50107,-1.48597 9.49182,-5.1505 9.49182,-5.80609 0,-1.84034 -3.58913,-2.22963 -10.18107,-1.10432 -6.70592,1.14475 -34.28393,8.24797 -47.07897,12.12604 -5.19688,1.57516 -6.84523,3.58302 -3.62642,4.41732 3.75884,0.97431 4.40297,1.00263 10.45308,0.45925 z m -36.68303,-3.17653 c 0.49802,-0.45071 0.902,-1.12885 0.89772,-1.50701 -0.009,-0.8062 -2.87964,-3.29744 -4.5166,-3.9198 -1.89763,-0.72145 -6.02995,-0.50269 -8.58895,0.45477 -2.75431,1.03052 -4.67034,2.48395 -3.7638,2.85504 0.31933,0.1307 1.19574,0.7778 1.9476,1.43792 1.73453,1.52295 2.45588,1.65925 8.31256,1.57097 4.05306,-0.0611 4.94785,-0.20082 5.71147,-0.89189 z m -42.73543,-2.18825 c 5.50263,-1.30045 11.1639,-2.83548 12.58058,-3.41115 1.41668,-0.57563 5.63875,-1.76155 9.38237,-2.63538 10.77363,-2.51477 10.62435,-2.46434 11.0725,-3.73867 0.89078,-2.53292 -1.78013,-5.51862 -4.93973,-5.52194 -0.84477,0 -5.69413,0.9769 -10.77637,2.17286 -5.08224,1.19596 -10.79223,2.28765 -12.68887,2.42602 l -3.44843,0.25152 -5.60371,5.8245 c -5.61486,5.83609 -6.5999,6.99675 -5.93813,6.99675 0.19525,0 4.85715,-1.06402 10.35979,-2.36451 z m -164.3166,-2.40528 c 17.17495,-2.9348 28.66671,-5.38418 41.1394,-8.7686 l 7.1124,-1.92992 5.28042,-5.51021 c 2.90423,-3.03062 5.28041,-5.67587 5.28041,-5.8783 0,-0.20246 -0.53343,-0.25729 -1.1854,-0.12181 -1.97893,0.41122 -12.27851,1.5383 -14.09548,1.54248 -1.0734,0.004 -1.55132,-0.14707 -1.29317,-0.40467 0.22523,-0.22475 3.73907,-1.57025 7.80854,-2.98992 8.82969,-3.08045 10.3555,-3.81837 12.17114,-5.88627 1.83628,-2.09139 1.73317,-3.89505 -0.28995,-5.07205 -1.37048,-0.79728 -1.61884,-0.80021 -8.77497,-0.10298 -10.38843,1.01212 -10.37794,0.67577 0.0998,-3.19752 7.69724,-2.84543 9.5896,-4.10958 10.11976,-6.7604 0.20909,-1.04544 0.0553,-1.52938 -0.7137,-2.24584 -1.49121,-1.38924 -3.25504,-1.51468 -10.65155,-0.7574 -11.67485,1.19531 -11.73688,1.01052 -0.98827,-2.94346 4.16928,-1.53373 7.89765,-3.17497 8.51341,-3.74763 3.30838,-3.07687 1.3006,-6.40707 -3.86278,-6.40707 -1.03244,0 -5.59328,0.48494 -10.13519,1.07764 -4.54191,0.5927 -8.59158,1.07764 -8.99925,1.07764 -1.7341,0 0.55853,-1.02234 8.21107,-3.66147 9.94371,-3.42925 10.91667,-3.88518 11.75616,-5.50857 1.2389,-2.39576 -0.62729,-4.45844 -4.42475,-4.89066 -1.83909,-0.20932 -6.66272,0.37596 -25.37897,3.07941 -3.54669,0.51231 -0.66286,-0.69146 9.92347,-4.14218 5.92193,-1.9303 11.30012,-3.8885 11.95152,-4.35149 1.68893,-1.20049 1.96586,-2.72901 0.73234,-4.04205 -2.2201,-2.36317 -5.94783,-2.44895 -18.29679,-0.42109 -21.48753,3.52861 -37.86707,7.31107 -64.44266,14.88142 -6.5197,1.85725 -13.48042,3.81018 -15.46827,4.33986 -2.99485,0.79806 -3.93675,1.27209 -5.49595,2.76608 -2.37566,2.27627 -2.51465,3.72129 -0.48075,4.99821 1.10259,0.69223 1.90582,0.8396 3.77173,0.69197 1.99025,-0.15751 15.02142,-2.30929 31.63121,-5.22313 8.60901,-1.51029 6.74834,-0.39571 -4.90582,2.93867 -25.4032,7.2681 -27.12552,7.82911 -28.68973,9.34522 -2.43403,2.35916 -1.79665,4.61608 1.58166,5.60043 1.14861,0.33472 3.80659,0.0502 12.45221,-1.33269 6.04554,-0.96703 12.51662,-2.03725 14.38018,-2.3783 4.20957,-0.77042 7.80064,-0.8334 6.56328,-0.11509 -0.45365,0.26333 -4.23615,1.50132 -8.40557,2.75103 -20.59108,6.17201 -21.7759,6.5744 -22.77544,7.73519 -1.68554,1.95751 -1.05107,4.02553 1.53691,5.00946 2.03849,0.77504 5.49071,0.48705 18.03808,-1.50468 6.9137,-1.09751 13.01697,-1.99544 13.56283,-1.99544 0.86411,0 0.91083,0.0781 0.36129,0.60425 -0.55313,0.52951 -6.45156,2.47106 -20.56253,6.76846 -4.96533,1.51214 -5.54656,1.82483 -6.37713,3.43098 -0.64721,1.25157 -0.62839,1.33619 0.56171,2.52633 0.84482,0.84482 2.01221,1.39342 3.71891,1.74775 2.27699,0.4727 3.57862,0.34898 15.37589,-1.46145 19.64171,-3.01423 20.0094,-2.75155 3.50551,2.50443 -6.19232,1.97208 -11.73689,3.89889 -12.32126,4.2818 -2.48409,1.62761 -1.43844,4.09247 2.11582,4.98743 3.36039,0.84616 7.63219,0.50976 21.55311,-1.69724 7.53002,-1.1938 13.90552,-2.08833 14.1678,-1.98785 0.75704,0.29001 -2.07078,1.36058 -11.0162,4.17054 -4.58449,1.44011 -9.57149,3.02006 -11.0822,3.51107 -4.43129,1.44011 -5.57953,3.33033 -2.96471,4.88031 3.14345,1.86337 8.96613,1.92113 19.10048,0.18937 z m 237.5149,-1.67827 c 41.53422,-7.6479 55.99494,-11.31187 67.82506,-17.18507 5.11411,-2.53896 9.08805,-5.60061 9.08805,-7.00175 0,-0.44675 -0.47752,-1.12514 -1.06117,-1.50757 -0.9025,-0.59132 -1.84651,-0.64844 -6.31228,-0.38187 -5.53961,0.33062 -6.26822,0.0237 -2.87819,-1.21196 1.01535,-0.3701 3.78582,-1.3845 6.15662,-2.25415 10.41407,-3.82014 15.79078,-8.29194 13.30601,-11.06655 -0.75128,-0.83892 -1.10975,-0.88177 -5.3315,-0.63714 -2.48934,0.14427 -5.66755,0.39264 -7.06266,0.552 -3.94975,0.45119 -2.92,-0.55726 2.55672,-2.50378 8.95572,-3.18303 10.58295,-3.89945 12.75245,-5.61435 1.22199,-0.96595 2.46287,-2.40503 2.82871,-3.28054 0.63464,-1.51896 0.62171,-1.58555 -0.49421,-2.54543 -1.44136,-1.23979 -3.66465,-1.26613 -12.25949,-0.14526 -6.01567,0.78456 -8.15474,0.7762 -6.87097,-0.0267 0.31622,-0.19781 4.41628,-1.65378 9.11129,-3.23554 7.61303,-2.56477 8.76179,-3.07859 10.62118,-4.7503 2.65948,-2.39111 3.06476,-3.77811 1.54645,-5.29223 -0.99659,-0.99389 -1.42838,-1.10665 -4.0135,-1.04828 -1.59318,0.0362 -7.24913,0.76339 -12.56873,1.61645 -5.31961,0.8531 -10.16897,1.54331 -10.77637,1.53382 l -1.10436,-0.0172 1.07764,-0.57774 c 0.5927,-0.31778 5.90747,-2.06661 11.81059,-3.8863 5.90312,-1.8197 11.4314,-3.66681 12.28506,-4.10464 4.71582,-2.41882 4.89001,-6.721 0.30691,-7.58078 -3.16761,-0.59425 -48.72667,7.96636 -61.04221,11.46993 -1.54102,0.43838 -7.84519,2.07962 -14.00927,3.64715 -6.16408,1.56753 -16.63871,4.27801 -23.27695,6.02326 -6.63824,1.7453 -12.94241,3.30515 -14.00927,3.46637 -1.79309,0.27096 -2.34714,0.71697 -7.32793,5.89915 -2.9635,3.08329 -5.46265,5.80704 -5.55366,6.05274 -0.10222,0.27596 0.22733,0.33898 0.86211,0.16488 1.41772,-0.3889 12.52041,-2.62948 18.26977,-3.6869 2.60788,-0.47967 8.81507,-1.64257 13.79375,-2.58421 4.97868,-0.94168 10.02202,-1.7953 11.20742,-1.8969 l 2.15527,-0.18471 -1.72422,0.77073 c -0.94832,0.42385 -6.08865,1.94095 -11.42295,3.37128 -5.3343,1.43032 -15.03303,4.06626 -21.55273,5.85768 -6.5197,1.79142 -12.96976,3.43784 -14.33347,3.65871 -2.63298,0.4264 -3.87204,1.07962 -4.93984,2.60409 -0.67183,0.95918 -0.6524,1.06349 0.72247,3.87983 0.58347,1.19519 2.30159,1.76659 4.7571,1.5821 1.30394,-0.098 10.92498,-1.75486 21.38008,-3.68198 10.45511,-1.92712 19.57191,-3.49607 20.25958,-3.48659 l 1.25027,0.0172 -1.07764,0.57968 c -0.5927,0.31885 -3.30834,1.20139 -6.03476,1.96117 -2.72642,0.75982 -8.64265,2.41826 -13.14717,3.68543 -25.12473,7.06796 -23.86031,6.61992 -25.02174,8.86589 -0.88914,1.71939 -0.19279,3.27321 1.84982,4.12769 1.9554,0.81797 4.41666,0.64326 12.39556,-0.87974 13.36295,-2.55077 28.37555,-5.05196 29.44512,-4.90575 l 1.15975,0.15855 -1.29316,0.54761 c -1.07264,0.45424 -28.06797,8.30806 -34.14148,9.93287 -2.28055,0.61012 -4.43791,2.38848 -4.43791,3.65828 0,1.92427 3.26814,3.69246 6.83572,3.69836 0.79614,0 5.64551,-0.75706 10.77636,-1.68529 23.0181,-4.16429 26.67391,-4.77721 28.29524,-4.74354 l 1.72422,0.0358 -1.29317,0.56835 c -1.22725,0.53938 -19.20206,5.85006 -28.4496,8.40548 -5.71034,1.578 -6.50661,1.92694 -7.35637,3.22386 -0.59331,0.90547 -0.6225,1.21665 -0.16576,1.76697 1.32497,1.5965 3.72311,2.20291 9.06093,2.29115 2.25909,0.0375 6.83465,-0.6037 14.87141,-2.08355 z m -60.30546,-13.12777 c 3.27935,-0.8093 7.47697,-1.80116 9.32806,-2.20407 2.20298,-0.4795 3.81975,-1.11471 4.68022,-1.83875 1.1572,-0.97371 1.28762,-1.30734 1.08923,-2.78651 -0.4604,-3.43244 -2.4448,-4.21244 -8.02447,-3.15398 l -3.58173,0.67943 -4.7992,5.01368 c -4.50227,4.7035 -5.39685,5.76173 -4.87056,5.76173 0.1188,0 2.8991,-0.66218 6.17845,-1.47153 z m 11.14816,-16.9789 c -0.28964,-0.28966 -1.52175,0.78547 -1.52175,1.32782 0,0.2448 0.38914,0.0929 0.86475,-0.33747 0.47561,-0.43045 0.77127,-0.87612 0.657,-0.99035 z M 308.33739,573.91267 c 7.0504,-7.32332 8.11524,-8.50342 7.88268,-8.73597 -0.36248,-0.36247 -10.56754,2.16195 -13.06822,3.23269 -2.33312,0.99902 -4.82446,3.11825 -5.40168,4.59492 -0.95608,2.44584 0.95854,3.98949 4.98142,4.01626 l 2.59711,0.0172 3.00869,-3.12514 z m 3.59019,-11.14828 c 4.41947,-0.97509 8.42937,-2.01859 8.9109,-2.3189 1.17991,-0.73594 12.01779,-12.25484 11.76662,-12.50602 -0.10925,-0.10923 -0.8647,-0.004 -1.67877,0.23269 -1.39485,0.40644 -9.14427,2.21182 -22.38629,5.21541 -6.49316,1.47279 -11.61597,3.5909 -12.70509,5.25309 -0.41201,0.62882 -0.65838,1.70258 -0.57943,2.52538 0.11591,1.20803 0.43756,1.58283 2.06067,2.40132 2.75445,1.38898 5.31388,1.24833 14.61139,-0.80297 z m 142.87208,-6.40866 c 5.02455,-0.96901 10.49338,-2.06096 12.15294,-2.42658 1.65956,-0.36558 7.86675,-1.61749 13.79375,-2.78198 13.10031,-2.57396 19.20693,-3.91204 25.43222,-5.57272 2.60788,-0.69572 9.49398,-2.51883 15.30244,-4.05135 11.66257,-3.07713 25.68301,-7.14366 28.07394,-8.14263 0.84736,-0.35406 1.9869,-1.2704 2.53227,-2.0363 1.27273,-1.78741 0.81827,-3.34257 -1.29911,-4.44577 -1.75362,-0.91366 -5.80954,-0.80865 -11.20281,0.29002 -1.7781,0.36226 -7.40336,1.46101 -12.50058,2.44171 -16.10541,3.09863 -29.89881,6.1905 -52.80419,11.83637 -9.00904,2.22058 -17.15598,4.16511 -18.1043,4.32119 -1.51054,0.24855 -2.42985,1.01384 -7.41862,6.17594 -3.13195,3.24075 -5.70211,6.12119 -5.71149,6.40098 -0.0121,0.36308 0.36016,0.40054 1.30049,0.13087 0.72465,-0.20785 5.42851,-1.1707 10.45305,-2.13975 z m -267.55147,-4.98489 c 19.77063,-3.54943 36.76326,-6.96101 42.83991,-8.60096 2.9635,-0.79978 8.2978,-2.2358 11.854,-3.19119 7.49507,-2.01354 20.17223,-5.88441 21.73907,-6.63785 1.52104,-0.73141 2.53965,-2.65835 1.92343,-3.63862 -0.86963,-1.38329 -3.07222,-2.30747 -6.06784,-2.54598 -3.0823,-0.2454 -11.40928,1.12725 -30.68615,5.05839 -15.03834,3.06673 -53.38784,13.13065 -55.95487,14.684 -1.97664,1.19609 -4.01739,3.67603 -4.01739,4.882 0,1.3529 1.50486,2.38024 3.4866,2.38024 0.86381,0 7.56126,-1.07553 14.88324,-2.39003 z m 121.7229,-1.21743 c 3.43766,-0.8209 11.09966,-2.59206 17.02666,-3.93591 6.46408,-1.46563 11.09787,-2.73073 11.57982,-3.16149 1.76554,-1.57796 11.15946,-11.74477 10.99963,-11.90456 -0.0941,-0.0941 -2.69126,0.40502 -5.77154,1.10906 -3.08027,0.70408 -7.63723,1.74499 -10.12657,2.31321 -28.93501,6.60453 -32.6785,7.58897 -39.70285,10.441 -1.85685,0.75392 -3.04856,2.83423 -2.48943,4.34564 0.20303,0.54882 1.18262,1.37278 2.20467,1.8544 2.62485,1.23686 8.16901,0.87542 16.27961,-1.06135 z m 151.55914,-8.45893 c 0.68732,-0.2354 5.44633,-1.29441 10.57558,-2.35343 27.34024,-5.64487 70.8396,-16.53215 73.79806,-18.47062 1.1744,-0.76948 1.84866,-2.42293 1.43144,-3.51018 -0.43825,-1.14201 -2.96065,-2.05115 -6.2774,-2.26249 -2.85074,-0.18166 -5.05938,0.16159 -17.06821,2.65256 -13.84048,2.8709 -29.07485,6.24015 -40.73466,9.00885 -3.43766,0.81629 -7.12318,1.61219 -8.19004,1.76862 -1.06686,0.15647 -2.42972,0.47218 -3.02859,0.70154 -0.97315,0.37278 -12.48937,12.03168 -12.48937,12.64413 0,0.35872 0.56054,0.30816 1.98319,-0.17898 z m -273.33206,-3.82505 c 23.87185,-4.55366 37.85075,-7.75475 55.914,-12.80404 9.80183,-2.73993 10.93882,-3.20641 11.65699,-4.78263 0.4418,-0.96964 0.38072,-1.20787 -0.49054,-1.91338 -1.53008,-1.23897 -4.20195,-1.80546 -8.45703,-1.79303 -3.09745,0.009 -6.66006,0.59376 -17.67324,2.90063 -18.96315,3.97213 -47.11107,11.07108 -50.50427,12.73723 -6.21224,3.05045 -7.29727,8.03693 -1.65333,7.5982 0.94832,-0.0737 5.99166,-0.94806 11.20742,-1.94298 z m 107.26275,1.45102 c 1.85822,-0.35558 4.12385,-0.6465 5.03474,-0.6465 1.55954,0 48.70948,-10.5845 52.32057,-11.74524 1.28963,-0.4145 3.0405,-1.9813 7.54346,-6.75026 6.75441,-7.15342 7.14966,-6.69566 -3.61918,-4.19154 -3.5562,0.82693 -11.21819,2.59331 -17.02665,3.92529 -10.25168,2.35088 -13.15323,3.02458 -28.7109,6.66636 -4.05553,0.94931 -8.90489,2.28675 -10.77636,2.97204 -1.87147,0.68529 -5.72066,1.78142 -8.55375,2.43584 -4.15753,0.96035 -5.38387,1.42266 -6.35805,2.39684 -0.66384,0.66382 -1.20267,1.46438 -1.1974,1.77896 0.018,1.07518 1.5307,2.55004 3.23983,3.15881 2.21814,0.79004 3.97265,0.78991 8.10369,0 z m -3.80965,-12.49166 c 3.5562,-0.78693 7.90284,-1.5515 9.6592,-1.699 1.75637,-0.14755 17.56529,-3.56757 35.13095,-7.60004 17.56566,-4.03246 32.34709,-7.41974 32.84762,-7.5273 0.50053,-0.10755 3.57633,-3.01124 6.83513,-6.45264 6.63067,-7.00223 6.6267,-6.90911 0.22933,-5.36897 -2.01518,0.48515 -6.57358,1.54165 -10.12979,2.34778 -3.5562,0.80614 -9.37543,2.13825 -12.93163,2.96025 -34.63221,8.0051 -42.43304,9.89207 -46.44561,11.23488 -2.54831,0.85279 -9.62838,2.70838 -15.73349,4.12353 -6.1051,1.41515 -11.84018,2.78215 -12.74463,3.03779 -1.91788,0.54207 -3.31268,1.78706 -3.31268,2.95682 0,1.31152 2.34542,2.97048 4.63588,3.27903 1.12501,0.15156 2.23944,0.33411 2.47652,0.40571 0.63172,0.19083 2.28817,-0.10574 9.4832,-1.69784 z m -97.40697,-3.85473 c 21.9773,-4.5878 42.40015,-9.65687 44.17173,-10.96366 3.29093,-2.42752 0.0703,-3.94234 -8.37604,-3.93968 -5.87188,0.002 -9.44325,0.5104 -19.64251,2.79702 -14.80974,3.32026 -20.106,4.84042 -24.16132,6.93491 -3.87324,2.00045 -6.58972,4.47357 -6.34169,5.77357 0.11871,0.62219 1.83445,1.71608 2.71136,1.72871 0.24334,0.004 5.48065,-1.0454 11.63847,-2.33087 z m 294.61445,-1.09123 c 10.92861,-2.51642 38.63529,-9.36931 43.0408,-10.64558 2.53555,-0.73455 4.07053,-1.96119 3.8629,-3.08691 -0.0738,-0.40032 -0.91018,-1.11579 -1.8585,-1.58995 -1.49455,-0.74728 -2.5568,-0.859 -7.97451,-0.8388 -5.84441,0.0218 -6.83812,0.15568 -15.30244,2.06164 -15.06061,3.39126 -18.43154,4.1025 -20.90614,4.41095 -2.36878,0.29526 -2.37572,0.30058 -8.06521,6.16748 -3.13195,3.22958 -5.70212,6.04008 -5.71147,6.24552 -0.009,0.20548 0.41937,0.246 0.9528,0.0901 0.53343,-0.15591 5.91623,-1.42244 11.96177,-2.81448 z m -202.58999,-7.07794 c 15.7448,-3.65091 19.61656,-4.4549 25.03065,-5.19777 6.0784,-0.83402 63.66963,-14.13653 69.14911,-15.97217 2.3708,-0.79422 4.89247,-1.56017 5.60371,-1.7021 1.57723,-0.31476 10.04937,-8.99018 9.00727,-9.2234 -0.93403,-0.20903 -11.03605,1.52321 -18.49047,3.17064 -3.55621,0.78593 -12.47904,2.62095 -19.82852,4.07782 -16.84763,3.33969 -26.06154,5.37048 -30.54005,6.73119 -1.93229,0.58709 -5.93794,1.66245 -8.90144,2.38968 -2.9635,0.72724 -7.82804,1.96931 -10.8101,2.76016 -2.98205,0.79085 -12.68077,3.10581 -21.55273,5.14435 -18.64026,4.28303 -20.60351,4.80203 -21.62676,5.71731 -2.55571,2.28604 1.49244,4.76604 7.87242,4.82284 2.52459,0.0225 5.85077,-0.57687 15.08691,-2.71855 z m -8.62676,-11.2496 c 9.60174,-2.20865 20.12648,-4.42556 23.38831,-4.92646 3.26183,-0.5009 9.36076,-1.78283 13.55318,-2.84874 4.19243,-1.0659 9.28264,-2.22675 11.31159,-2.57965 7.79238,-1.35538 33.6261,-8.57271 35.68708,-9.97013 l 1.19312,-0.80898 -1.41921,-0.13644 c -2.52698,-0.24294 -19.45888,1.65539 -28.71141,3.21898 l -9.00895,1.52244 -2.7566,-0.90493 c -1.51612,-0.49771 -3.18435,-0.81239 -3.70716,-0.69929 -0.52282,0.1131 -3.27826,0.70665 -6.12322,1.31899 -9.88104,2.12678 -11.58616,2.70401 -13.95144,4.72298 -2.04922,1.74918 -2.57053,1.95032 -8.9834,3.46606 -15.47888,3.65857 -39.31666,10.41296 -40.40145,11.44768 -0.22128,0.21106 -0.29517,0.49089 -0.16421,0.62186 0.46406,0.46406 7.07318,0.98963 9.8342,0.78203 1.54102,-0.11587 10.65782,-2.01775 20.25957,-4.2264 z m 224.93571,1.24975 c 4.34481,-1.0747 8.56182,-2.26975 9.37104,-2.65565 1.3345,-0.63636 2.30463,-2.02058 1.78224,-2.54295 -0.11419,-0.11419 -2.70207,-0.39473 -5.75083,-0.62341 -3.04877,-0.22868 -5.87485,-0.51918 -6.28025,-0.64555 -0.52192,-0.16271 -1.90591,0.98401 -4.7416,3.92874 -4.42021,4.59018 -4.85415,5.21752 -3.30792,4.78216 0.5652,-0.15913 4.58246,-1.16863 8.92732,-2.24334 z m -297.62511,1.36228 c 1.39131,-0.32732 2.93771,-1.00321 3.43647,-1.50196 l 0.90682,-0.90683 -0.92971,0 c -1.22089,0 -6.49753,1.11554 -8.02671,1.69693 -0.66071,0.2512 -1.08118,0.65107 -0.93438,0.88859 0.36969,0.59819 2.54876,0.52877 5.54751,-0.17673 z m 104.3391,-22.23978 c 4.01232,-0.94645 7.754,-2.02148 8.31484,-2.38896 1.70649,-1.11813 2.44037,-3.16672 1.87998,-5.24784 -0.40227,-1.49392 -0.786,-1.92324 -2.43066,-2.71941 l -1.95298,-0.94542 -8.27151,1.81419 c -8.81431,1.93325 -9.83424,2.29546 -11.50815,4.08701 -1.93433,2.07026 -1.17309,5.77904 1.42688,6.95176 1.76567,0.79641 3.4962,0.58236 12.5416,-1.55133 z m 27.11537,-4.50154 c 16.32189,-2.1996 37.36423,-3.59051 53.63471,-3.54529 l 3.12745,0.009 1.96236,-2.04803 c 1.393,-1.45381 1.83816,-2.19769 1.53429,-2.56383 -0.29099,-0.35062 -0.0239,-2.09987 0.83401,-5.46237 0.69415,-2.72062 1.26352,-5.25597 1.26527,-5.63411 0.002,-0.37815 0.39044,-1.03801 0.86376,-1.46636 0.63065,-0.57073 0.73856,-0.92586 0.40387,-1.32914 -0.52925,-0.63771 1.38587,-11.50432 2.20051,-12.4859 0.26716,-0.32191 0.36605,-0.96245 0.21975,-1.42341 -0.29344,-0.92455 1.38557,-11.66269 1.9311,-12.35043 0.18806,-0.23708 0.33395,-1.10996 0.32419,-1.93974 -0.0255,-2.17078 1.69903,-11.62114 2.23956,-12.27244 0.25102,-0.30246 0.33545,-0.86514 0.18761,-1.2504 -0.3546,-0.92407 1.47838,-11.00372 2.21452,-12.17781 0.31554,-0.50326 0.4705,-1.30971 0.34434,-1.79211 -0.24118,-0.9223 1.87247,-11.63772 2.44196,-12.37979 0.18194,-0.23708 0.32792,-0.94177 0.3244,-1.56597 -0.01,-1.76138 2.26691,-11.24826 2.96346,-12.34772 0.34219,-0.54012 0.50757,-1.16745 0.36751,-1.39407 -0.23045,-0.37288 1.51767,-7.61851 3.01468,-12.49526 0.32749,-1.06686 1.3231,-4.55841 2.21246,-7.75899 0.88936,-3.20058 1.87208,-6.20185 2.18384,-6.66949 0.31175,-0.46764 0.56682,-1.26732 0.56682,-1.77707 0,-1.41543 3.44679,-11.92997 4.1822,-12.75793 0.35633,-0.40117 0.55767,-0.9831 0.44742,-1.29317 -0.26787,-0.75338 3.81342,-12.36865 4.68403,-13.33067 0.37679,-0.41634 0.57163,-0.94052 0.43299,-1.16485 -0.28782,-0.46569 3.75651,-11.37509 4.82274,-13.00915 1.00715,-1.54352 1.08301,-3.77722 0.14532,-4.27905 -2.22657,-1.19164 -22.3305,-4.52065 -35.83637,-5.93415 -10.4522,-1.09391 -42.887,-1.09203 -53.23524,0.003 -15.95116,1.68805 -30.72524,4.2984 -44.51037,7.86428 -16.54661,4.28028 -41.05397,13.2532 -41.05397,15.03124 0,0.31448 0.28602,0.80915 0.63559,1.09927 0.6465,0.53655 4.5086,6.50613 6.33438,9.79093 0.5525,0.99402 2.32729,4.1946 3.94398,7.11241 1.6167,2.9178 3.12725,5.59606 3.3568,5.95168 0.74074,1.14758 8.41066,16.92325 9.84993,20.25956 0.76706,1.7781 1.84985,4.21593 2.40619,5.41738 1.66346,3.59233 7.42302,18.05483 8.1058,20.35403 0.34899,1.17515 0.91846,2.69493 1.2655,3.37729 0.58639,1.15299 5.80698,16.48298 9.15677,26.8884 3.59823,11.17713 8.55948,28.8311 13.3252,47.41601 1.79344,6.99386 3.48147,13.25726 3.75119,13.91868 0.40719,0.99851 1.85802,2.46139 2.44113,2.46139 0.0844,0 3.67828,-0.47501 7.98636,-1.05558 z m 72.20763,-10.11231 c 3.11938,-3.29739 5.6716,-6.09281 5.6716,-6.21206 0,-0.27149 -4.75468,0.80518 -7.27398,1.64714 -2.9865,0.99811 -5.45923,3.2985 -6.48093,6.02924 -0.4848,1.29575 -0.77754,2.62672 -0.65053,2.95771 0.23242,0.60567 1.71628,1.48983 2.59131,1.54403 0.25901,0.016 3.02314,-2.66868 6.14253,-5.96606 z m -103.341,2.32605 c 3.65042,-0.83265 7.42825,-1.88082 8.39516,-2.32926 4.19477,-1.9455 3.73416,-7.46869 -0.72293,-8.66887 -1.35681,-0.36534 -2.7716,-0.18467 -8.44488,1.07846 -9.52844,2.12146 -10.04769,2.29499 -11.64416,3.89146 -1.45992,1.45992 -1.62415,2.1088 -1.14283,4.51538 0.36629,1.8315 2.31143,3.023 4.93855,3.02513 1.09118,8.7e-4 4.97067,-0.67964 8.62109,-1.5123 z m 106.6418,-11.37033 c 1.89664,-0.44477 4.14944,-0.93218 5.00621,-1.08314 1.30629,-0.23015 2.54767,-1.31692 7.68951,-6.73176 3.37245,-3.55151 5.8643,-6.45729 5.53743,-6.45729 -0.32687,0 -1.65343,0.2685 -2.94791,0.59668 -1.29448,0.32817 -5.55418,1.32696 -9.466,2.21952 -9.94085,2.2682 -12.38448,3.64381 -13.57113,7.63969 -0.82277,2.77058 -0.8247,2.73577 0.20844,3.76891 1.09357,1.09357 3.03035,1.10573 7.54345,0.0474 z m -110.05347,-1.13568 c 8.61224,-1.98246 9.17625,-2.18267 10.46575,-3.71516 2.05746,-2.44515 1.05284,-5.85367 -2.07768,-7.04922 -1.95484,-0.74656 -1.99697,-0.74278 -8.98828,0.80754 -9.63079,2.13562 -9.98678,2.25382 -11.54495,3.83337 -1.22963,1.2465 -1.35158,1.59446 -1.16294,3.31828 0.1595,1.45764 0.53703,2.21732 1.55307,3.12515 1.81024,1.61745 3.54344,1.57027 11.75503,-0.31996 z m -3.44843,-12.50058 c 8.61224,-1.98246 9.17624,-2.18267 10.46575,-3.71516 1.86293,-2.21397 1.23784,-5.39626 -1.29617,-6.59873 -2.45012,-1.16266 -6.23726,-0.69446 -17.22507,2.1295 -2.76391,0.71035 -5.38819,2.88276 -5.38819,4.46042 0,2.91606 2.32797,5.23873 5.25364,5.2417 0.87432,8.6e-4 4.55984,-0.6821 8.19004,-1.51773 z m 122.55405,-1.72139 c 5.68992,-1.30311 10.85124,-2.57398 11.46959,-2.82417 1.86119,-0.75304 3.12413,-2.88872 3.32146,-5.61675 0.15618,-2.15917 0.0644,-2.50542 -0.83006,-3.13193 -0.56124,-0.39311 -1.84508,-0.70439 -2.90518,-0.70439 -1.86091,0 -12.6137,2.30792 -18.17818,3.90166 -4.7317,1.35523 -7.30735,4.26406 -7.31556,8.26187 -0.003,1.24932 1.56238,2.44605 3.23051,2.4704 0.47416,0.007 5.5175,-1.05359 11.20742,-2.35669 z M 294.66499,433.98901 c 7.08829,-1.67021 8.51538,-2.30234 10.15471,-4.49805 0.71567,-0.95857 0.79205,-1.42165 0.45769,-2.77522 -0.85573,-3.46426 -5.69037,-4.05756 -14.84587,-1.82187 -7.9855,1.94999 -10.36683,3.66185 -9.74024,7.00191 0.4344,2.31551 2.42054,3.6773 5.43392,3.72572 0.82978,0.0133 4.67268,-0.72129 8.53979,-1.63249 z m 148.32246,-2.10883 c 4.17635,-3.93375 87.11465,-91.70984 87.11465,-92.19606 0,-0.62807 -8.86442,-6.42212 -16.38008,-10.70649 -12.01551,-6.84957 -31.32767,-15.84842 -41.68401,-19.42342 -2.97798,-1.02801 -3.71035,-1.14091 -4.64328,-0.71584 -0.89034,0.40568 -1.05556,0.71202 -0.84228,1.56179 0.35722,1.42325 -3.82832,12.25472 -5.12476,13.26204 -0.70667,0.54908 -0.81814,0.85424 -0.44783,1.22586 0.60977,0.61193 -2.96414,11.77882 -4.21011,13.15455 -0.50054,0.55271 -0.65076,1.03978 -0.39876,1.29316 0.49515,0.49794 -2.64901,11.59027 -3.57909,12.62668 -0.36183,0.40316 -0.54994,1.17841 -0.43421,1.78908 0.2667,1.40685 -2.22493,11.55759 -3.06471,12.48554 -0.41282,0.45617 -0.49856,0.86637 -0.23591,1.129 0.42424,0.42427 -1.67502,11.56868 -2.39818,12.73111 -0.20367,0.32739 -0.31795,1.00093 -0.25396,1.49674 0.15312,1.18641 -1.5794,11.30527 -2.10324,12.28408 -0.22408,0.4187 -0.30942,1.01778 -0.18966,1.33131 0.11977,0.31352 -0.18668,3.28569 -0.681,6.60481 -0.49431,3.31912 -0.90848,6.42271 -0.92036,6.89687 -0.0119,0.47416 -0.36718,3.77173 -0.78954,7.32793 -0.42237,3.5562 -0.89015,8.50255 -1.03952,10.99189 -0.14937,2.48934 -0.37662,5.05951 -0.505,5.71148 -0.33157,1.68383 0.32008,1.48396 2.81084,-0.86211 z m -21.83758,-0.55313 c 5.21223,-1.19327 10.00782,-2.4442 10.65687,-2.77984 1.51376,-0.78279 3.80765,-3.39148 4.13736,-4.70513 0.51379,-2.04711 0.0381,-3.41232 -1.50108,-4.30803 -1.4442,-0.84044 -1.54756,-0.84244 -5.17265,-0.10002 -6.17161,1.26395 -14.24697,3.26928 -15.83185,3.93149 -3.50136,1.46296 -5.31784,3.77594 -5.32203,6.77667 -0.003,1.77676 0.14695,2.115 1.18256,2.67684 0.65197,0.35369 1.45284,0.65085 1.77972,0.66034 0.32688,0.009 4.85887,-0.95905 10.0711,-2.15232 z m -130.44099,-9.68817 c 5.43683,-1.28464 7.64539,-2.20717 9.53335,-3.98216 1.49229,-1.403 1.70789,-2.41223 0.89598,-4.19418 -0.67156,-1.4739 -1.84294,-1.74051 -7.46956,-1.70014 -5.32154,0.0382 -7.06168,0.46686 -12.83902,3.16277 -4.17734,1.94931 -4.86825,2.81017 -4.00749,4.99324 1.17549,2.98131 6.01377,3.58074 13.88674,1.72047 z M 423.558,417.51572 c 4.18939,-0.96586 8.22802,-2.04559 8.97474,-2.39939 2.09457,-0.99243 4.41928,-3.56984 4.92977,-5.46566 0.40704,-1.51165 0.35664,-1.8151 -0.43255,-2.60429 -2.63434,-2.63434 -17.79788,0.33618 -24.25382,4.75129 -2.51828,1.72221 -3.38283,5.51881 -1.5492,6.80314 1.48897,1.04291 4.09596,0.81351 12.33106,-1.08509 z m -140.88124,-8.15089 c 5.21315,-0.32528 5.52232,-0.40064 9.51747,-2.31961 5.07173,-2.43609 5.84719,-3.18576 5.29574,-5.1196 -0.31769,-1.11408 -0.76324,-1.53105 -2.15374,-2.01558 -1.66839,-0.58136 -2.23066,-0.50157 -11.62464,1.64963 -5.47951,1.2548 -10.20707,2.56318 -10.6258,2.94076 -2.18693,1.97203 0.71066,6.38873 3.55621,5.42059 0.35562,-0.12099 3.07126,-0.37128 6.03476,-0.55619 z m 143.18533,-5.66817 c 4.76678,-1.09014 10.93981,-4.03453 12.60331,-6.01148 0.88104,-1.04707 1.12882,-1.75328 1.02993,-2.93546 l -0.13022,-1.55669 -2.3708,0.0278 c -7.03382,0.0823 -19.33368,3.113 -22.19304,5.46838 -1.63034,1.34299 -2.43354,4.17343 -1.5026,5.29515 0.8199,0.98791 7.67185,0.83104 12.56342,-0.28764 z m -151.37252,-6.41247 c 0.82821,-0.2392 4.51245,-1.12985 8.18719,-1.97923 9.86505,-2.28021 11.41976,-3.16541 10.37692,-5.90828 -0.96119,-2.52812 -2.83721,-2.57788 -12.67411,-0.33617 -4.07084,0.9277 -8.08045,1.82394 -8.91023,1.99166 -2.56963,0.51938 -3.87949,1.39872 -3.87949,2.60439 0,1.29078 1.04906,3.46268 1.82291,3.77404 0.9453,0.38034 3.50896,0.30641 5.07681,-0.14641 z m 154.09917,-9.09738 c 5.21576,-1.21963 10.13587,-2.60997 10.93358,-3.08967 2.51117,-1.51007 3.48386,-5.1846 1.5655,-5.91396 -0.96527,-0.36699 -9.66358,1.33507 -20.15596,3.94405 -3.18281,0.79142 -5.78985,4.30716 -4.90459,6.61411 0.40582,1.05757 2.49785,0.79867 12.56147,-1.55453 z m -158.41256,-3.18956 c 1.30394,-0.35316 4.6015,-1.14149 7.32792,-1.75186 7.18127,-1.60769 9.22683,-2.25001 10.27489,-3.22643 1.2216,-1.1381 1.17996,-2.35119 -0.12551,-3.65665 -0.82799,-0.828 -1.5057,-1.05805 -3.11683,-1.05805 -1.93434,0 -18.59439,3.4896 -20.73062,4.34222 -1.83438,0.73213 -1.77898,3.0658 0.11779,4.96258 1.22461,1.22461 2.80234,1.32257 6.25236,0.38819 z m 157.0618,-9.74303 c 3.11372,-0.73877 7.57316,-1.79833 9.90988,-2.35457 4.99814,-1.18979 6.90499,-2.41548 7.65565,-4.92097 0.59512,-1.98634 0.0539,-3.01973 -1.58162,-3.01973 -2.09671,0 -19.79001,4.36368 -21.18231,5.22417 -2.44697,1.5123 -3.59766,4.9973 -1.96417,5.94872 1.03278,0.60154 0.81658,0.62803 7.16257,-0.87762 z m -154.90653,-4.0388 c 8.63676,-2.07656 10.88021,-2.93603 11.13642,-4.26639 0.45337,-2.35414 -1.14298,-3.7143 -4.35928,-3.7143 -2.07666,0 -18.7994,3.64246 -20.89418,4.55106 -1.57955,0.68513 -1.78052,1.65458 -0.75435,3.63896 1.40655,2.71998 2.76753,2.70083 14.87139,-0.20933 z m 162.47184,-11.01979 c 5.06809,-1.19735 9.75097,-2.4543 10.4064,-2.79324 1.54367,-0.79826 2.85768,-2.48894 3.22136,-4.14476 0.62528,-2.84692 -0.76851,-2.86583 -12.27169,-0.16647 -10.78547,2.53093 -11.98158,3.20488 -13.16432,7.41749 -0.27342,0.97385 0.61737,1.82444 1.93835,1.85086 0.36036,0.007 4.80182,-0.96654 9.8699,-2.16388 z m -176.0414,0.92315 c 1.6548,-0.45253 6.11009,-1.53834 9.90065,-2.4129 7.43045,-1.71436 9.06821,-2.33809 9.47093,-3.60692 0.36417,-1.14742 -0.52988,-2.88794 -1.77482,-3.45517 -1.77172,-0.80725 -4.03303,-0.55226 -12.48677,1.40804 -4.47482,1.03765 -8.91193,2.02394 -9.86025,2.19175 -1.93969,0.34324 -3.23291,1.29949 -3.23291,2.3905 0,1.18415 1.86093,3.59969 3.02223,3.92294 1.62859,0.45332 1.73516,0.44391 4.96094,-0.43824 z m -0.49572,-13.22349 c 11.53356,-2.76485 12.51771,-3.06244 13.41817,-4.05743 0.75123,-0.8301 0.7567,-0.96773 0.0936,-2.35819 -0.52824,-1.10772 -1.13356,-1.60529 -2.42288,-1.99158 -1.55238,-0.4651 -2.67015,-0.30214 -11.54848,1.68363 -5.40636,1.20922 -10.45992,2.31901 -11.23014,2.4662 -0.77021,0.14719 -1.68113,0.66844 -2.02427,1.15833 -0.55437,0.79148 -0.52824,1.07815 0.23453,2.57331 1.56772,3.07298 2.6736,3.11612 13.47944,0.52573 z m 175.73022,-0.78507 c 2.24156,-0.57068 6.11228,-1.46521 8.60163,-1.98783 6.90234,-1.44912 8.90851,-2.79455 10.11077,-6.78072 0.2366,-0.78443 0.0738,-1.05266 -0.85254,-1.40485 -0.91164,-0.34662 -3.08398,0.009 -10.66108,1.74328 -11.0068,2.51986 -12.64084,3.2894 -13.63851,6.42293 -0.55219,1.73434 -0.53673,1.93476 0.19015,2.46627 1.06361,0.77773 1.52457,0.74387 6.24958,-0.45908 z m -187.73508,-9.68607 c 1.65479,-0.44517 6.29381,-1.55232 10.30893,-2.46032 8.59851,-1.94453 9.81738,-2.61945 8.86834,-4.91063 -0.62299,-1.50403 -2.5421,-2.596 -4.56242,-2.596 -1.20646,0 -19.0314,3.93816 -21.95144,4.84985 -2.09833,0.65514 -2.43401,1.8664 -1.05425,3.8041 1.64022,2.30346 3.58053,2.60708 8.39084,1.313 z m 197.68575,-5.89619 c 4.58653,-1.0802 9.10752,-2.38953 10.04662,-2.90961 1.74982,-0.96911 2.97664,-2.62469 3.49085,-4.71087 0.25109,-1.01869 0.12337,-1.24358 -0.93992,-1.65461 -1.92603,-0.74458 -6.83019,-0.09 -10.11992,1.35073 -1.57007,0.68762 -4.45684,1.62328 -6.41506,2.07925 -4.27248,0.99484 -6.82116,2.61737 -7.68768,4.8941 -1.36051,3.57462 0.009,3.68668 11.62511,0.95101 z m -196.72737,-7.61009 c 5.51056,-1.31184 10.31143,-2.62771 10.6686,-2.92414 0.97175,-0.80649 0.78838,-1.98986 -0.53599,-3.45895 -1.92036,-2.13022 -3.07074,-2.08109 -15.01661,0.64125 -11.84346,2.69901 -12.9325,3.025 -13.29937,3.98105 -0.32802,0.8548 1.19543,3.30121 2.44504,3.92634 1.64528,0.82307 5.29224,0.32126 15.73833,-2.16555 z m 203.78389,-5.80426 c 3.6631,-0.89715 8.51328,-3.3215 9.97447,-4.98573 0.68379,-0.77877 1.52257,-2.26236 1.86401,-3.29687 0.59762,-1.81086 0.58361,-1.91099 -0.37618,-2.6882 -1.31911,-1.06814 -2.00565,-1.03121 -8.91904,0.47984 -9.07511,1.98354 -15.70767,5.76748 -16.37867,9.3442 -0.20135,1.0733 -0.11392,1.6399 0.29174,1.89061 0.84938,0.52495 10.53512,-0.007 13.54367,-0.74385 z m -221.53254,-3.33477 c 1.16916,-0.33485 5.71428,-1.41146 10.10026,-2.39244 8.31699,-1.86021 10.89078,-2.77391 11.1151,-3.94588 0.22273,-1.16362 -1.95679,-3.33918 -3.66661,-3.65994 -2.3677,-0.44418 -9.79229,0.61074 -14.12984,2.00764 -2.13372,0.68716 -5.61363,1.64916 -7.73314,2.13778 -2.11951,0.48861 -4.10775,1.09926 -4.41831,1.35701 -0.78498,0.65147 -0.68204,1.69661 0.2808,2.85111 1.86654,2.23807 4.55403,2.76106 8.45174,1.64472 z m 226.03538,-10.86812 c 8.22603,-1.94433 11.62515,-4.02831 13.42709,-8.23211 1.0316,-2.40659 1.02949,-2.9949 -0.0129,-3.55272 -1.43765,-0.76942 -3.89372,-0.4914 -11.43329,1.29426 -9.40816,2.22821 -12.59659,4.08019 -14.52325,8.43573 -0.78054,1.76452 -0.80816,2.06706 -0.24058,2.63465 0.83335,0.83334 3.14347,1.33033 5.04712,1.08581 0.82978,-0.10658 4.31085,-0.85611 7.73575,-1.66562 z m -234.82051,-0.34941 c 1.49647,-0.34041 5.04854,-0.83484 7.8935,-1.09872 5.84449,-0.54209 8.25909,-1.19819 11.14491,-3.02833 2.13951,-1.35683 2.4364,-2.20133 1.32951,-3.78165 -1.55062,-2.2138 -6.68056,-3.4507 -11.0735,-2.66996 -5.21398,0.92666 -10.04674,2.2655 -12.39281,3.43326 -1.30394,0.64903 -3.1467,1.42521 -4.09502,1.72484 -1.8847,0.59549 -3.23291,1.58038 -3.23291,2.3617 0,0.69032 2.14308,2.67572 3.44843,3.19471 1.55278,0.61735 3.8647,0.57235 6.97789,-0.13585 z m -7.62447,-10.80096 c 5.9606,-0.5839 13.82507,-2.13689 16.71984,-3.30165 1.29411,-0.52071 2.03104,-1.55072 2.03104,-2.83879 0,-1.25949 -2.67926,-3.54394 -4.96223,-4.23102 -3.15068,-0.94821 -5.70744,-0.76647 -13.07608,0.92947 -7.23895,1.6661 -13.44269,4.1903 -14.31795,5.82573 -0.41529,0.77599 -0.28377,1.06968 0.9583,2.1399 2.61657,2.25453 3.56871,2.36568 12.64708,1.47636 z m 246.56323,-3.02458 c 8.33884,-1.94686 9.85447,-2.47835 12.69137,-4.45052 1.72111,-1.1965 2.73892,-2.34697 3.82104,-4.31894 1.42054,-2.58876 1.44683,-2.7191 0.71227,-3.53077 -0.51291,-0.56677 -1.3232,-0.84278 -2.47416,-0.84278 -2.54185,0 -16.58513,3.41261 -18.99218,4.61523 -2.97669,1.48722 -5.64483,4.10656 -6.5216,6.40229 -0.71339,1.86804 -0.71296,2.00288 0.009,2.80044 1.09535,1.21032 3.26179,1.07435 10.75447,-0.67495 z M 202.72829,282.4067 c 2.51108,-0.22625 14.83237,-3.03746 16.3564,-3.73185 0.56699,-0.25834 1.27485,-1.05869 1.57303,-1.77856 0.51939,-1.25392 0.47173,-1.36972 -1.13572,-2.75925 -3.83206,-3.31255 -8.98315,-3.46321 -20.84248,-0.6096 -7.65282,1.84143 -9.45554,2.49624 -11.15806,4.05299 -1.39331,1.274 -1.20438,2.18101 0.73414,3.5244 2.55575,1.77114 5.91285,2.07312 14.47269,1.30187 z m 263.71963,-7.52915 c 9.41316,-2.18138 9.8696,-2.31975 12.28726,-3.72495 3.3489,-1.94648 4.73078,-3.16743 6.09584,-5.38595 1.59076,-2.58535 1.63758,-3.53916 0.20557,-4.19161 -1.55279,-0.70752 -1.42649,-0.72536 -11.68296,1.65037 -9.46553,2.19252 -11.83784,3.09594 -15.02217,5.72073 -1.56843,1.29285 -3.23286,4.34933 -3.23286,5.93672 0,0.98992 1.10858,1.67938 2.72823,1.69679 0.67076,0.007 4.55025,-0.75874 8.62109,-1.7021 z m -269.65113,-4.08859 c 4.568,-1.05351 8.83093,-2.16733 9.47317,-2.47515 0.64224,-0.30782 1.36055,-1.108 1.59624,-1.77817 0.3715,-1.05638 0.28681,-1.32825 -0.63656,-2.04334 -2.60904,-2.02058 -4.77056,-2.6988 -9.22078,-2.89322 -4.05923,-0.17734 -4.98249,-0.0423 -14.0436,2.05442 -10.81207,2.50186 -12.28506,3.09386 -12.28506,4.93738 0,1.01982 0.36941,1.42618 2.2754,2.50299 4.62449,2.61267 10.53265,2.53381 22.84119,-0.30491 z m -16.27997,-9.45199 c 10.35182,-2.44198 11.98847,-3.02203 12.32645,-4.36866 0.35521,-1.41527 0.0479,-1.7577 -2.98241,-3.32295 -2.62159,-1.35414 -2.75585,-1.37537 -8.69746,-1.37551 -5.48203,-1.4e-4 -6.64671,0.14682 -12.71611,1.60453 -13.69706,3.28966 -14.38211,3.52075 -14.76376,4.98016 -0.30128,1.15208 -0.0363,1.4055 2.90976,2.78276 5.68338,2.65694 11.70791,2.58131 23.92353,-0.30033 z m 292.96751,-1.35866 c 10.47915,-2.34334 11.79223,-2.73003 14.80547,-4.36014 4.30581,-2.32935 8.97805,-7.33636 8.35677,-8.95548 -0.61856,-1.61185 -3.1045,-1.44623 -12.72572,0.84781 -8.29681,1.97825 -9.38264,2.38433 -13.73534,5.13672 -2.01518,1.27428 -4.18364,2.5528 -4.81876,2.84115 -0.63516,0.28835 -1.60503,1.38503 -2.15527,2.43707 l -1.00048,1.91279 1.01763,0.83381 c 1.38571,1.13539 2.37542,1.06845 10.2557,-0.69373 z m -311.31665,-7.75095 c 10.97575,-2.52397 12.96096,-3.27778 12.96096,-4.92144 0,-0.84329 -0.51867,-1.21978 -3.23291,-2.34664 -3.15899,-1.31151 -3.38569,-1.34156 -9.91426,-1.31407 -5.95377,0.0251 -7.33851,0.18072 -12.71611,1.42931 -10.47387,2.43186 -16.25516,3.95546 -17.5503,4.62521 -1.66125,0.85906 -1.50213,2.33182 0.30812,2.852 6.48576,1.86367 7.46639,2.0102 13.57822,2.02884 6.07186,0.0185 6.54479,-0.0487 16.56628,-2.35321 z m -33.80847,-5.53517 c 6.93774,-1.3266 22.26605,-5.13039 23.49248,-5.82977 0.71124,-0.40559 1.35374,-1.15332 1.42778,-1.66163 0.11157,-0.76596 -0.18365,-1.00668 -1.72422,-1.40594 -1.02236,-0.26495 -2.96242,-0.78288 -4.31124,-1.15094 -1.93445,-0.52787 -4.02836,-0.62727 -9.91426,-0.47065 -8.04363,0.21404 -9.71586,0.51403 -29.33209,5.26207 -8.525056,2.06346 -11.003006,2.92196 -11.396946,3.94857 -0.41741,1.08775 0.40048,1.47381 3.991036,1.88386 4.96406,0.5669 23.83871,0.17566 27.76746,-0.57557 z m 359.71507,-3.31808 c 5.84195,-1.34022 8.15322,-2.09471 11.39781,-3.72069 3.97165,-1.99036 7.53311,-4.92868 9.36785,-7.72884 0.72258,-1.10279 0.71417,-1.15879 -0.29583,-1.97664 -1.28972,-1.04435 -2.09066,-0.94499 -12.92638,1.60362 -8.98874,2.11418 -10.2544,2.57325 -14.29243,5.18391 -2.65793,1.71839 -6.39819,5.81287 -6.39819,7.0041 0,0.26136 0.43644,0.78744 0.96987,1.16905 1.20437,0.8616 2.37671,0.71386 12.1773,-1.53451 z m -15.38865,-0.92088 c 0.68779,-0.68778 0.65485,-1.20695 -0.0766,-1.20695 -0.73107,0 -1.65883,1.0521 -1.27036,1.44059 0.41179,0.41176 0.76232,0.35095 1.34692,-0.23364 z m 27.69353,-15.21177 c 8.87822,-2.08876 10.38992,-2.605 15.06708,-5.14539 3.52288,-1.91343 8.19004,-6.16143 8.19004,-7.45448 0,-1.23511 -0.86914,-1.84491 -2.62948,-1.84491 -2.07384,0 -18.35611,3.68803 -21.79873,4.93754 -3.98773,1.44735 -8.99378,4.74873 -10.9462,7.21874 -1.91772,2.42605 -1.99548,2.74766 -0.94517,3.90823 0.96448,1.06578 2.4092,0.88664 13.06246,-1.61973 z m -18.23404,-0.58042 c 1.57675,-1.87086 1.1154,-2.33692 -1.15243,-1.1642 -1.13871,0.58887 -1.75503,1.4496 -1.75503,2.45105 0,0.74659 1.90392,-0.0961 2.90746,-1.28685 z m 8.04145,-13.6031 c 1.41981,-0.59324 3.70694,-3.10662 3.70694,-4.07368 0,-0.68773 -1.09414,-0.62318 -2.59538,0.15313 -1.91392,0.98974 -4.06471,4.5214 -2.75353,4.5214 0.11216,0 0.85107,-0.27038 1.64197,-0.60085 z m 22.86128,-2.029 c 9.49808,-2.19935 12.0932,-3.14516 15.69591,-5.7206 2.13389,-1.52545 4.07605,-4.51348 3.86889,-5.9524 -0.0769,-0.53393 -0.66068,-1.26222 -1.29739,-1.61843 -1.06518,-0.5959 -1.6678,-0.53359 -7.54346,0.77999 -11.57627,2.58803 -17.22472,5.09968 -21.77597,9.68295 -2.50089,2.51848 -2.95018,3.54117 -1.98134,4.51002 0.88931,0.88929 3.2417,0.58579 13.03336,-1.68153 z m -11.86352,-13.30023 c 1.56658,-0.79922 4.54331,-3.58495 5.32688,-4.9851 0.2429,-0.4341 0.14122,-0.73089 -0.30975,-0.90394 -1.6959,-0.65078 -4.80238,1.1634 -6.86938,4.01168 -2.07182,2.85493 -1.39959,3.5363 1.85225,1.87736 z m 23.16849,-2.58174 c 6.45621,-1.42861 7.66557,-1.94847 9.5648,-4.11153 4.45715,-5.07642 -2.5893,-6.57031 -11.31048,-2.39789 -2.47046,1.18193 -6.97485,4.60809 -7.70239,5.85863 -0.4945,0.84998 0.85177,1.92137 2.40425,1.91332 0.75357,-0.004 3.92329,-0.57204 7.04382,-1.26253 z m -10.2131,-13.27846 c 2.71495,-1.35803 7.38668,-5.95374 7.02097,-6.90674 -0.36204,-0.94348 -2.8441,-0.37372 -5.59897,1.28526 -2.33744,1.40761 -5.71919,5.08348 -5.71919,6.21661 0,0.9316 1.72168,0.69316 4.29719,-0.59513 z m 15.37972,-16.69146 c 4.84273,-2.44683 9.64485,-6.86795 8.59747,-7.91532 -0.55593,-0.55592 -0.91694,-0.56983 -2.50029,-0.0963 -3.41179,1.02027 -6.13882,2.71219 -9.28198,5.75879 -2.44029,2.36531 -3.01631,3.15101 -2.64133,3.60285 0.77051,0.92842 1.77948,0.69464 5.82613,-1.34998 z m 18.90248,-17.42924 c 5.55509,-2.68183 11.89943,-7.24316 11.74744,-8.44594 -0.35514,-2.81012 -11.4348,1.66396 -17.03877,6.88044 -2.59326,2.41395 -3.0457,3.02808 -2.61395,3.54827 0.78624,0.94738 2.97074,0.39947 7.90528,-1.98277 z m 18.69548,-16.40179 c 7.05516,-2.37671 23.7634,-11.09205 23.7634,-12.39543 0,-3.78935 -17.12645,2.0892 -26.18657,8.98839 -2.19299,1.66993 -3.98726,3.18013 -3.98726,3.356 0,1.1768 2.99782,1.20066 6.41043,0.051 z m 33.67765,-31.45434 c 0,-0.570969 4.23192,-2.495828 7.16935,-3.260931 3.50917,-0.914024 6.6244,-0.807089 6.6244,0.227393 0,0.604455 -4.47573,2.064534 -8.4707,2.763333 -4.424,0.773835 -5.32305,0.819475 -5.32305,0.270205 z"
       id="path3629"
       inkscape:connector-curvature="0" />
    <path
       style="fill:#000000"
       d=""
       id="path3627"
       inkscape:connector-curvature="0" />
    <path
       style="fill:#000000"
       d=""
       id="path3625"
       inkscape:connector-curvature="0" />
    <path
       style="fill:#000000"
       d=""
       id="path3621"
       inkscape:connector-curvature="0" />
    <path
       style="fill:#000000"
       d=""
       id="path3619"
       inkscape:connector-curvature="0" />
  </g>
</svg>
